<mxfile host="Electron" modified="2023-11-26T19:41:25.661Z" agent="Mozilla/5.0 (Windows NT 10.0; Win64; x64) AppleWebKit/537.36 (KHTML, like Gecko) draw.io/21.8.2 Chrome/114.0.5735.289 Electron/25.8.1 Safari/537.36" etag="cKGIy_d3C5UE3XfTiB_4" version="21.8.2" type="device">
  <diagram name="Страница — 1" id="xWZmzviWS0IyjoDhjkCg">
    <mxGraphModel dx="3088" dy="854" grid="1" gridSize="10" guides="1" tooltips="1" connect="1" arrows="1" fold="1" page="1" pageScale="1" pageWidth="827" pageHeight="1169" math="0" shadow="0">
      <root>
        <mxCell id="0" />
        <mxCell id="1" parent="0" />
        <mxCell id="tJPOTWM7rPbdsHeLChuB-1" value="" style="rounded=0;whiteSpace=wrap;html=1;fillColor=#D2D2D2;" vertex="1" parent="1">
          <mxGeometry x="-850" y="120" width="1160" height="730" as="geometry" />
        </mxCell>
        <mxCell id="tJPOTWM7rPbdsHeLChuB-3" value="&lt;font color=&quot;#344756&quot; style=&quot;font-size: 14px;&quot;&gt;&lt;b&gt;Пользователи&lt;/b&gt;&lt;/font&gt;" style="sketch=0;outlineConnect=0;gradientColor=none;fontColor=#545B64;strokeColor=none;fillColor=#0A1F32;dashed=0;verticalLabelPosition=bottom;verticalAlign=top;align=center;html=1;fontSize=12;fontStyle=0;aspect=fixed;shape=mxgraph.aws4.illustration_users;pointerEvents=1" vertex="1" parent="1">
          <mxGeometry x="-810" y="450" width="110" height="110" as="geometry" />
        </mxCell>
        <mxCell id="tJPOTWM7rPbdsHeLChuB-75" style="edgeStyle=orthogonalEdgeStyle;rounded=0;orthogonalLoop=1;jettySize=auto;html=1;entryX=0.5;entryY=0;entryDx=0;entryDy=0;strokeWidth=2;strokeColor=#0A1F32;" edge="1" parent="1">
          <mxGeometry relative="1" as="geometry">
            <mxPoint x="-337" y="508.0000000000001" as="sourcePoint" />
            <mxPoint x="143" y="270" as="targetPoint" />
            <Array as="points">
              <mxPoint x="-282" y="508" />
              <mxPoint x="-282" y="250" />
              <mxPoint x="143" y="250" />
            </Array>
          </mxGeometry>
        </mxCell>
        <mxCell id="tJPOTWM7rPbdsHeLChuB-76" style="edgeStyle=orthogonalEdgeStyle;rounded=0;orthogonalLoop=1;jettySize=auto;html=1;entryX=0.5;entryY=1;entryDx=0;entryDy=0;strokeColor=#0A1F32;strokeWidth=2;" edge="1" parent="1">
          <mxGeometry relative="1" as="geometry">
            <mxPoint x="-337" y="508.0000000000001" as="sourcePoint" />
            <mxPoint x="133" y="704.0000000000001" as="targetPoint" />
            <Array as="points">
              <mxPoint x="-282" y="508" />
              <mxPoint x="-282" y="724" />
              <mxPoint x="133" y="724" />
            </Array>
          </mxGeometry>
        </mxCell>
        <mxCell id="tJPOTWM7rPbdsHeLChuB-4" value="" style="fillColor=#D2D2D2;dashed=0;outlineConnect=0;strokeWidth=2;html=1;align=center;fontSize=8;verticalLabelPosition=bottom;verticalAlign=top;shape=mxgraph.eip.competing_consumers;strokeColor=none;" vertex="1" parent="1">
          <mxGeometry x="-485" y="463" width="150" height="90" as="geometry" />
        </mxCell>
        <mxCell id="tJPOTWM7rPbdsHeLChuB-5" value="" style="shape=image;verticalLabelPosition=bottom;labelBackgroundColor=default;verticalAlign=top;aspect=fixed;imageAspect=0;image=data:image/svg+xml,PHN2ZyB4bWxucz0iaHR0cDovL3d3dy53My5vcmcvMjAwMC9zdmciIGhlaWdodD0iNTEyIiB3aWR0aD0iNTEyIiBkYXRhLW5hbWU9IkxheWVyIDEiIGlkPSJMYXllcl8xIiB2aWV3Qm94PSIwIDAgNTEyIDUxMiI+PGRlZnMgaWQ9ImRlZnM0Ij48c3R5bGUgaWQ9InN0eWxlMiI+LmNscy0ye2ZpbGw6IzAwOTYzOX08L3N0eWxlPjwvZGVmcz48cGF0aCBzdHJva2Utd2lkdGg9IjkuODQ2IiBmaWxsPSJub25lIiBpZD0icGF0aDgiIGQ9Ik0yNTYuMDQ5IDQ5Ny43M2ExNi44MzcgMTYuODM3IDAgMCAxLTguNjY1LTIuMzY0TDUzLjExNCAzODMuMzE0YTE4LjExNyAxOC4xMTcgMCAwIDEtNi40LTYuNCAxNy44MjIgMTcuODIyIDAgMCAxLTIuMjY0LTguNjY1VjE0NC4wNDdhMTguMTE3IDE4LjExNyAwIDAgMSAyLjI2NS04Ljc2NCAxNy4xMzMgMTcuMTMzIDAgMCAxIDYuNC02LjMwMWwxOTQuMTctMTEyLjM0OGExNy4yMzEgMTcuMjMxIDAgMCAxIDguNzY0LTIuMzYzIDE2LjI0NyAxNi4yNDcgMCAwIDEgOC41NjYgMi4zNjNsMTk0LjE3MSAxMTIuMjVhMTcuMTMzIDE3LjEzMyAwIDAgMSA4Ljc2NCAxNS4wNjR2MjI0LjIwM2ExOC4xMTcgMTguMTE3IDAgMCAxLTIuMjY1IDguNzYzIDE3LjEzMyAxNy4xMzMgMCAwIDEtNi40IDYuMzAybC0xOTQuMTcxIDExMi4xNWExNi44MzcgMTYuODM3IDAgMCAxLTguNjY1IDIuMzYzeiIvPjxwYXRoIHN0cm9rZS13aWR0aD0iOS44NDYiIGZpbGw9IiMwMDk2MzkiIGlkPSJwYXRoMTAiIGQ9Ik0yNTYuMDQ4IDIyLjczOWE3Ljc3OSA3Ljc3OSAwIDAgMSA0LjQzMSAxLjI4bDE5NC4yNyAxMTIuMTVhOS4wNTkgOS4wNTkgMCAwIDEgMy4yNDkgMy4xNTEgOC43NjMgOC43NjMgMCAwIDEgMS4xODIgNC40MzFWMzY4LjI0OWE4LjQ2OCA4LjQ2OCAwIDAgMS0xLjE4MiA0LjMzMiA5LjA1OSA5LjA1OSAwIDAgMS0zLjM0OCAzLjM0OGwtMTk0LjI3IDExMi4xNWE4Ljc2MyA4Ljc2MyAwIDAgMS04Ljk2IDBMNTcuMjUgMzc1LjgzMWE4LjQ2OCA4LjQ2OCAwIDAgMS00LjQzMS03Ljc4VjE0My43NTJhOC43NjMgOC43NjMgMCAwIDEgMS4xODItNC40MyA5Ljg0NiA5Ljg0NiAwIDAgMSAzLjM0Ny0zLjI1bDE5NC4yNy0xMTIuMTVhOC43NjMgOC43NjMgMCAwIDEgNC40My0xLjE4Mm0wLTE2LjczOWEyNS43OTggMjUuNzk4IDAgMCAwLTEyLjg5OCAzLjQ0Nkw0OC45NzkgMTIxLjU5NmEyNS43IDI1LjcgMCAwIDAtOS44NDcgOS4zNTUgMjYuMTkxIDI2LjE5MSAwIDAgMC0zLjQ0NiAxMi45OTd2MjI0LjEwNGEyNS42IDI1LjYgMCAwIDAgMy44NCAxMi44IDI1LjAxIDI1LjAxIDAgMCAwIDkuODQ3IDkuODQ3bDE5NC4xNyAxMTEuNzU2YTI0LjkxMSAyNC45MTEgMCAwIDAgMTIuOSAzLjU0NSAyNS44OTYgMjUuODk2IDAgMCAwIDEyLjg5OC0zLjU0NUw0NjMuMDIgMzkwLjdhMjUuMDEgMjUuMDEgMCAwIDAgOS44NDYtOS44NDcgMjUuMjA3IDI1LjIwNyAwIDAgMCAzLjQ0Ni0xMi45OTdWMTQzLjk0OGEyNi4xOTEgMjYuMTkxIDAgMCAwLTMuNDQ2LTEyLjk5NyAyNS43IDI1LjcgMCAwIDAtOS44NDYtOS4zNTRMMjY4Ljg0OSA5LjQ0N0EyNS41MDIgMjUuNTAyIDAgMCAwIDI1Ni4wNDkgNnoiIGNsYXNzPSJjbHMtMiIvPjxwYXRoIHN0cm9rZS13aWR0aD0iOS44NDYiIGZpbGw9IiMwMDk2MzkiIGlkPSJwYXRoMTIiIGQ9Ik0xOTMuODIgMzQxLjQ2N2EyNS4wMSAyNS4wMSAwIDAgMS00OS45MjEgMFYxNjkuOTQzYTI1Ljk5NCAyNS45OTQgMCAwIDEgMjcuNTctMjQuMzIxaC43ODdhNDQuMzA5IDQ0LjMwOSAwIDAgMSAzNC4wNjkgMTUuMTYzbDcuNDgzIDkuMDZMMzE4LjE4IDI5NC42OTVWMTcwLjYzMmEyNS4wMSAyNS4wMSAwIDAgMSA0OS45MjEgMHYxNzEuNDI1YTI1Ljk5NCAyNS45OTQgMCAwIDEtMjcuNTcgMjQuMzIxaC0uNjg5YTQ0LjMwOSA0NC4zMDkgMCAwIDEtMzQuNjYtMTUuMDY1TDE5My44MiAyMTcuMjA1eiIgY2xhc3M9ImNscy0yIi8+PC9zdmc+;" vertex="1" parent="1">
          <mxGeometry x="-455" y="433" width="56" height="56" as="geometry" />
        </mxCell>
        <mxCell id="tJPOTWM7rPbdsHeLChuB-6" value="&lt;b&gt;&lt;font color=&quot;#344756&quot;&gt;Ребалансировщик нагрузки&lt;/font&gt;&lt;/b&gt;" style="text;html=1;strokeColor=none;fillColor=none;align=center;verticalAlign=middle;whiteSpace=wrap;rounded=0;fontColor=#0A1F32;fontSize=14;" vertex="1" parent="1">
          <mxGeometry x="-413" y="560" width="60" height="30" as="geometry" />
        </mxCell>
        <mxCell id="tJPOTWM7rPbdsHeLChuB-7" value="" style="endArrow=classic;html=1;rounded=0;fontColor=#0A1F32;strokeColor=#0A1F32;strokeWidth=2;entryX=0.138;entryY=0.338;entryDx=0;entryDy=0;entryPerimeter=0;" edge="1" parent="1">
          <mxGeometry width="50" height="50" relative="1" as="geometry">
            <mxPoint x="-690" y="510" as="sourcePoint" />
            <mxPoint x="-660.6000000000004" y="440.1200000000001" as="targetPoint" />
          </mxGeometry>
        </mxCell>
        <mxCell id="tJPOTWM7rPbdsHeLChuB-8" value="&lt;font color=&quot;#344756&quot; style=&quot;font-size: 14px;&quot;&gt;&lt;b&gt;Браузерный клиент&lt;/b&gt;&lt;/font&gt;" style="shape=module;align=left;spacingLeft=20;align=center;verticalAlign=top;whiteSpace=wrap;html=1;fillColor=#D2D2D2;strokeColor=#0A1F32;strokeWidth=2;fontColor=#0A1F32;" vertex="1" parent="1">
          <mxGeometry x="-650" y="411" width="120" height="79" as="geometry" />
        </mxCell>
        <mxCell id="tJPOTWM7rPbdsHeLChuB-9" value="" style="endArrow=classic;html=1;rounded=0;fontColor=#0A1F32;strokeColor=#0A1F32;strokeWidth=2;exitX=0.069;exitY=0.635;exitDx=0;exitDy=0;exitPerimeter=0;" edge="1" parent="1">
          <mxGeometry width="50" height="50" relative="1" as="geometry">
            <mxPoint x="-690.3000000000002" y="529.95" as="sourcePoint" />
            <mxPoint x="-650" y="590.05" as="targetPoint" />
          </mxGeometry>
        </mxCell>
        <mxCell id="tJPOTWM7rPbdsHeLChuB-10" value="&lt;font color=&quot;#344756&quot; style=&quot;font-size: 14px;&quot;&gt;&lt;b&gt;Мобильный клиент&lt;/b&gt;&lt;/font&gt;" style="shape=module;align=left;spacingLeft=20;align=center;verticalAlign=top;whiteSpace=wrap;html=1;fillColor=#D2D2D2;strokeColor=#0A1F32;strokeWidth=2;fontColor=#0A1F32;" vertex="1" parent="1">
          <mxGeometry x="-640" y="560" width="120" height="80" as="geometry" />
        </mxCell>
        <mxCell id="tJPOTWM7rPbdsHeLChuB-11" value="" style="endArrow=classic;html=1;rounded=0;fontColor=#0A1F32;strokeColor=#0A1F32;strokeWidth=2;exitX=0.069;exitY=0.635;exitDx=0;exitDy=0;exitPerimeter=0;" edge="1" parent="1">
          <mxGeometry width="50" height="50" relative="1" as="geometry">
            <mxPoint x="-520.0000000000002" y="440.00000000000006" as="sourcePoint" />
            <mxPoint x="-479.7" y="500.09999999999997" as="targetPoint" />
          </mxGeometry>
        </mxCell>
        <mxCell id="tJPOTWM7rPbdsHeLChuB-12" value="" style="endArrow=classic;html=1;rounded=0;fontColor=#0A1F32;strokeColor=#0A1F32;strokeWidth=2;entryX=0.138;entryY=0.338;entryDx=0;entryDy=0;entryPerimeter=0;" edge="1" parent="1">
          <mxGeometry width="50" height="50" relative="1" as="geometry">
            <mxPoint x="-510" y="585" as="sourcePoint" />
            <mxPoint x="-481" y="515" as="targetPoint" />
          </mxGeometry>
        </mxCell>
        <mxCell id="tJPOTWM7rPbdsHeLChuB-14" value="&lt;span style=&quot;font-size: 14px;&quot;&gt;&lt;b&gt;Копия приложения&lt;/b&gt;&lt;/span&gt;" style="shape=module;align=left;spacingLeft=20;align=center;verticalAlign=top;whiteSpace=wrap;html=1;fillColor=#D2D2D2;strokeColor=#0A1F32;strokeWidth=2;fontColor=#0A1F32;" vertex="1" parent="1">
          <mxGeometry x="-230" y="269" width="210" height="194" as="geometry" />
        </mxCell>
        <mxCell id="tJPOTWM7rPbdsHeLChuB-17" value="&lt;font style=&quot;font-size: 14px;&quot; color=&quot;#344756&quot;&gt;&lt;b&gt;PostgreSQL&lt;/b&gt;&lt;/font&gt;" style="shape=datastore;html=1;labelPosition=center;verticalLabelPosition=bottom;align=center;verticalAlign=top;fillColor=#344756;shadow=1;" vertex="1" parent="1">
          <mxGeometry x="-198.67" y="358" width="70" height="75" as="geometry" />
        </mxCell>
        <mxCell id="tJPOTWM7rPbdsHeLChuB-18" value="" style="image;sketch=0;aspect=fixed;html=1;points=[];align=center;fontSize=12;image=img/lib/mscae/Cache_Redis_Product.svg;" vertex="1" parent="1">
          <mxGeometry x="-108" y="377" width="66.67" height="56" as="geometry" />
        </mxCell>
        <mxCell id="tJPOTWM7rPbdsHeLChuB-26" value="" style="shape=image;verticalLabelPosition=bottom;labelBackgroundColor=default;verticalAlign=top;aspect=fixed;imageAspect=0;image=data:image/png,iVBORw0KGgoAAAANSUhEUgAAAkAAAAJACAYAAABlmtk2AAAACXBIWXMAABYlAAAWJQFJUiTwAAAAAXNSR0IArs4c6QAAAARnQU1BAACxjwv8YQUAAGqmSURBVHgB7d1/jFVnnuf359xb/HAGZ2nnj8WNJlMrFZZWWjTAphH0yKYsRRk3VjSgHtkjpAjcjKLRNtOUV3LGLTvdtmNnu2VpXfTgrFYaunESodjZFrQ0pr3SrrrKVhoGawwjNNLEIE05GdooUjyMoIMp6t6T87nnHrh1ubfq/niec57nnPdrxIB/tG2qzj3nc77f7/M8kQGAPqZn4o1ffvnlxkatvrFeizaaKJ5s/YX2z7Uo+i39HJt4Y/InN7b+kjEb4+RH1z9q0gxnofMPkn/mjeSfeSP9o/hGZKLWr5tx/Fn6p6KFZT8vLS2sX7/+xtxsdMMAQA+RAVA5Cja/Xrw7OVGrTcZRsxVsFGYUZJJwMdkOMJOmHBbaP3TDW2iFJgWl5EejGd/4jbVrFghKQPUQgIASyio30cSabc1oabJWqyeVmuZk8pHfZtJws9Gg0w2Fo7TKFF1qNhuf1eKJhaVmc+Hj/2ntJQOgdAhAQMB2/dHtyT4hZ9LApoX0RxqOorh+af3ExCUqR0C4CEBAALKWVa3enE6DTqyQk1VzUBwFoEsEIyA8BCDAM6321dLStjhqbKvXar+dtGWmDRWdoCQ31kuxiReazXieUAT4iQAEFOxr/2Jxmyo7hJ1y6wxFzUZtjtkioFgEICBHWXUnqpvfo41Vea32WRzH86ZZm6NKBOSLAAQ4pMBzZ6kxberxnsjE03EaeICe0ipRNGca0fy6ifocgQhwhwAEWNSjwjNtgBFlgShumJ+dP75mzgCwhgAEjCmb4anVaknooaUFp+aazebPmCECxkcAAobUVeU5ZAg8KMZCcgNPqkO1n9EuA4ZHAAIGoNBzu3HnEFUeeGwubpp3TL0xd372oQUDYEUEIKAP7bJcWztxMI7iacMsD8LSapVF9fgMYQjojQAEdCD0oGw0SN1oNt8hDAHLEYBQeYQeVAVhCLiPAIRK6prpmTZA9TAzhEojAKEyWqu3Gnf3RTVz0BB6gE6tMHT+T9eeNEBFEIBQeruO3J1myTowkBvJQ+FMsxG9w8aLKDsCEEpJ1Z7F5tLROIr3GY6fAEaxkFSFXqVFhrIiAKFU0mpP/H1DiwuwJnlQnKQqhLIhACF4HdWeQ8kfThoArlAVQmkQgBAsZnuA4qgqdPeuOcaZZAgVAQjB2X3kzj5Tj44a2lyAD1hBhiARgBCEjjbXjKHaA/iI9hiCQgCC13bN3J6sNVu7NBN8gDCkS+mjxqsEIfiMAAQvpfM9zaTNFe0zAILUWj1GEIKnCEDwCsvYgVKaixvRqyyjh08IQPACwQeoBAam4Q0CEApF8AEqqTUwTRBCkQhAKATBB4AhCKFABCDkiuADoAeCEHJHAEIuCD4ABnApbkTPMyyNPBCA4BTBB8AI5uKo8RzL5+ESAQhOaAPDKJ54y5iYfXwAjIR9hOASAQhWdRxZ8YoBAAsIQnCBAAQrOKsLgGMLURyd/OWP1rxqAAsIQBjb7pk7+0wcJe0uM2kAwC1WjMEKAhBGxoAzgAJdiqPGftpiGBUBCENTu+tOvJQEn1a7CwAKw3wQRkUAwlB2f2fxaHLVvGKY8wHgD9piGBoBCAOh3QUgAAtJW+xJqkEYBAEIK6LdBSA0tMUwCAIQ+to1c/tQFNe1uot2F4DQ0BbDighAeEC6i3P9J4Z2F4DgxWfiqPk81SB0qxmgg4ack/Bz0RB+AJRCtC+5p/3t179z9/sG6EAFCC1fm7m1bSJeq3bXtAGAcmJIGvdQAYLRm1ESfqj6ACi7SapByFABqjBVfdbEa38SG7PNAEC1UA2qOCpAFZVVfQg/ACqKalDFUQGqGK3wqsX10wQfALiHalAFUQGqkGyFF+EHAJZpVYN2//GXbPhaIVSAKoB9fQBgUOwbVBVUgEpu98ydfezrAwCDau0b9Itdf7x4yKDUqACVFGd4AcC4otlzx9Y8b1BKBKASare8fpH8ctIAAMbBgHRJ0QIrmY6jLCYNAGBceqG8yIB0+VABKgm1vBbju2/FxhwyAADrkgfmybXRmufnZqMbBsEjAJUALS8AyA0tsZKgBRY4Wl4AkCtaYiVBBShgu4/efYtVXgBQFFaJhYwAFCCOswAAb9ASCxQtsMDsOnJ3WvM+hB8A8EJrBvNrM7e4JweGABSQ1rxPPWbYGQD8MjkRr73IyfJhoQUWCOZ9ACAEzAWFggDkOeZ9ACAsyYP1UjNq7GcuyG8EII+pp5yUVU8bWl4AEBqGoz3HDJCnfuc7SweT8MO8DwCEKd0vaObOPgMvEYA8pEG6ZtQ8mfxyowEAhGqjiaPTDEf7iRaYZxh2BoAyYjjaNwQgT+gw0zvxXc37TBsAQBnNrYvW7OcwVT8QgDzAYaYAUBkMR3uCAFQwwg8AVA4hyAMMQRdIy9w5yR0AKqe1QozjM4pFACpIxzJ3VnoBQPVs1PEZehYYFIIAVACd6cUydwCAngUsky8GAShnrQs9MrMGAIBEHMWvEILyxxB0jnSB60I3AAB0ieLolV/+aM2rBrkgAOWEDQ4BAKtjw8S8EIBy8PWjiz+JjTlkAABYRfJgPvnLY2ufM3CKAOQY4QcAMCxCkHsEIEc42gIAMJ74zLpo7XMcneEGAcgBhZ/F+O4vksoPm1wBAEaWPKQvrY3WPEkIso8AZBnhBwBgEyHIDQKQRYQfAIALhCD7CECWEH4AAC4RguwiAFlA+AEA5IEQZA9HYVhwJ176CeEHAOCanjXtFcYYEwFoTNrnJ7kk9xkAAPIxnT57MA5aYGNgk0MAQFHYLHE8VIBGpLO9CD8AgKLoGZSeM4lREIBGoFPdOdgUAFC8eCZ9JmFYtMCGpAstjuJXDAAAnoji6JVf/mjNqwYDIwANgfADAPBWs/n8uT9dP2swEALQgH7nO0sHm1HzpEGpPPxQZDY8ZMymR4x59JH+f9+t28bcvJ3+fP0L/To2gC8efSQyWzbrOo6Sazr94w0Ppb/e1HVd32pfx/L5F3Hrx5Vrcev6vniV6zp0tbh26P/40cQ7BqsiAA3gazO3tk3Eay8aBE1hZ/uUMTumaq0HhR4YelCMQgHo6rU0FF251mw9QK5cSx8ogEtbNus6jsxjm6PWrxVwdG3bomtZQeiTq83kZ8J+gG4sRYtPfjy74ZLBighAq9g1c3syiusKPxsNgrNjSg+Lmnlia/qwcC0LRvOXm/ceJMA4dA1PJdfuE1trrdBuM+wM4sPLcfKjac5eaBoE40YcNbafn31owaAvAtAK2uHnF8kvJw2CoQfEM3vyCz0rUSDSW7QeIApDVIiwGl2/Cjp7d9bM41uj3ANPP7p2dQ2f+KDJdRyGhSQEPUkI6o8A1IfO97oT31XlZ9IgCFnweWaPPw+NbllV6P0LaYUIkCz0fOupeiFVnmGpGkQQCsLCumjNds4N640A1Mfuo4uq/EwbeC+E4NOLHh7vzjfNR5epDFWV2ltqbX1jZ1jXruiaPXtBFaGGgdfmzh1b+6TBAwhAPaQ7a7LRYQj08HjpQC24h0e3rCrEnEX5+dSitUFB6MjxBiHea9HsuWNrnjdYhgDUhb1+wqCHiIKPAlCZMGdRXiFXewaha5ZqkL/YKPFBBKAOu2fu7DNxdNrAa3pr/sHh+shL2EOhIPTufKO1CgfhUvDRbI9+Lju1dBWCsn2G4Bf2CFqOANTGcvcwaGXM0f3ht7yGoUqQ3q5pj4VF16p+VCH4dNJw/4snaIl5ij2COhCADMvdQ3H4qVryo26qiiAUBoUeXatlr1CuhLkgr7E8vo0AlPj60cWLycd0m4G3qh5+OmWrbxSEeMD4g+CzHCHIX8kVemlttObJqi+Pr/wTJV3xZfYZeIvws5zaf+lAbdSatWA/oWLpe/HSgQnz7J5qtWZXo6+FrlEF9cUlA79saph4/d/9xf/w702FVfrTyoov/2m58Mx+ws9KaI0Vo0rDzePQMP+3j5OAvFTx0+Mr+8nlgFP/abXXOy9MGAyGIJQPtbg0iF+2LRhc0uqwY6dZIu+j9jzQnKmgSgYghp79p4fM8SPlX+rugt64Xz/F7IVtoe447otjp5utbR3gncoORVfyFYbw47+XDhB+RrU9acn89HsT5mW+htaozXXyhXprHo3wMxoGxL01WYvrldz/rnLDFe2h56cMvKUb5dM7aS+MSy1EDaHq//76M6pBo9AD+weHJ1pD+ASf8axdY8xjmyNatH7a9Ju7vrexakPRlfpE7/7O4tHkd1zZga8Q6IGj6kWebt425uq19EBS/dAf37qdBoYND6ndkbY/Nj2S/rGChf5cSFiSPDyFnpDaXVoNqB+fJj90/V65ZlqrBPXj5u373/f713IaklXd2rJZ1RmTC1phHqvYUHRlAhA7PYdBR1zkMVyqOZn5y6OfxK6HyNTmtDWyfaoWTCjS2zfnjK1M39Oj++teH1SahXZdwwo9V68tDzmjUOv06fbu1S4pkB18c4lr0E834qixvSrzQJUIQNMz8cY78V2Fn0kDb+nGq7kVV/TQeC9583xvPh77YdHL9qmo3Xby+/gDVov1plD7raT9qv18fKTr9+fJ90yhx0bg6UdVWLWhXQYhlsZ7bWFdtGZ7FTZJrEQA2nV08SfJb/SQgdfU+nI1JJn3yij9PhSIfD4LimrQfelmhv4NjXeGHl3DedL1+/KBCWetMQWgvH9PGEzyKTj5y2NrnzMlV/oAxNxPGFxWf/SQ1wnVRcnCkCoLvrVVql4N8rXqo2DwZ8k167LSM4h0Owo3IYgqkOcqMA9U6gDE3E84XFV/VPXx6eGetRc0N5TX0OkgqlgNUhjVzJkvVR/XLdpRaVj67SQEuQjvVIG8Vvp5oFIHoN1HF//WMPfjPVfVH9/CTydVHh7fGrVWGvkShKpUDfLpiJXPvzCtVVE/v+BX8OmkEPTOC2usX6tUgbxX6nmg0u4DxH4/4dBbuO2lxnqQvzfv74Nch0Nq9Y7+G7Vs+T/7T6PCKxHp4ZW11lJ/7RtUxgMss3199v9O8S2vbC5NR0T4/vXWf5tWTOplZd0aY42+H58kX4frXxj4aWOZD00tZQUoaX0dSlpfPzHwnovqjyoYerCERi0GzaLs9WATyDLuG6Rw99KB4ndyzuZ7Qmz9aJZN7TCbqAIFIIr3n5tdd8aUTOkCEOd8hUWHndqcLVA74cjxsPcYyWMZ8qCKHiC3Rfv6FD3oHHLw6aSDYJ/dY/el5ZuvsS+Q50o5D1S68waieEKtr0kD7yn42B6s1MM69Bup/vtVwdJD4cPLxf5eFMTUMgr1DCf9dytkFxl+FMr1/SzLwK9CsQa2bfIh7GNFG8vYVSnVDFB7yfuMQRD+xX9td7ddzSj8mz8vzxb72jH3P1xstmYkdkzVCttp+rf+cXqmmB7eX9w0wVDL61//UXGrvBQS/tf/2DBvnGqW6iw2zQPpOrC5Y7vOCPtf/iMbc3pu8jd3vvQPf3fh9fOmJErTAmu3vv7WIBi2l76XvYyut+SiV42F0hIruuWl4fa0UlLe61H7A9nc5JMl8UEoVSusNHXH9twPAqEl4DbDjwafyz5DoN/jN1+7W2gA8b0lpgFnPZiLCj/ZQO/s6Uapw4/Yvg6fpg0Wgo21uH7alEQprrivf+fu9w1zP0HZY/nA0/crtJOxKguqdhW1X4/aYceP+HdshNqpJ1+oF3L0iNpdWs5epSqGfp+fW1y+nm7BYOC55Oretus7d14xJRD8DJBaX0n9p3TL88rupQMT1vYT0Y1YoaBKNB+kAWntIfTPJvOfD1KlRW/si0uRF/Mtag++drDe2k8pb2p3ffdEozWrVUW7/qmdl5m1yf3g/N+wJ1AIoiiafnT3n/zsV+f/x+smYMFXgGh9hUd7idh8YFep+tNNg99FtcX0tq4l0ZpLKpLactpLKu/9fVT9qEq7qx9VIW2uCKMNFo418drgV4UFfbXR+gqTWii2pJUQVo9kbbHPC3h7VgB5+0j+c0EKPNpFvIgApqrPoTcZ2tXn7+wFe+H7ia0EoFCUoRUW7NWm1lccxa8YBEdLum1R+LlleU+SUGkIXNWgY62KhMmVqnp5zgXp36N5n7wfmFR9HmRzrypVFbdPlWZxcuklrbDvf23m1jYTqGADEK2vMOnBZXPvn/nLPIS6vduuTuQ9k5JtOmizwteLrp8ihrCp+vSmr4fNwP3YZgJQSCbitW+ZQAUZgGh9hWtqs7FGlZ+PaH/1lJ7ltZT7bJDe4LVM3lVbSsPOeYcfqj6row1WadO7//jLIDcgDu5Ko/UVNptLlHkTX11Rs0GaC7IdgooYdlaLlarP6my2wbZQAQpPrfb9dEV2WIILQFFcC7bcBrvzP/NUfwaSzQblXQ3KNk20sbeLdnbOc9g529fnxRNUfQZx5ZrdOSBCUHCCPCssqACUJMxDSQTaZxAsmzc2mzfdKlA1SK2cPKtBmgfSXNCoLStVe1T1yXNnZ319VPXRLBUGo3a0zZmzHQxCh2h61x8vHjIBCSYAtc/6+r5BsGyu7tANlwA0PLVyNBuU59YBCj+jzO1k/7s8TwrPBp3LfqyKC1eu2bumqACFKaqZt6Zn4o0mEOFUgNLwM2kQLJs3NWYyRqeHu1o7ebbEsjAz6DUw7N8/rqzlxaDz6GzOAbEUPlgb78RLwRQqgghArepPUpU2CJrNU8w/vUZ7YlxqiR18M7+WmEKNNkxcraIzasVoVLS87LBZkdX3nnPBQhXPJM/saROAIAIQe/6Uw5bN9i63qp67ZJseWmqJ5fX11EMtnenpPdCcHWiaV/jJVnnR8hqf2tI2v46+HbaLwYUyruJ9AEoHn2l9lQED0H4qYs+gXmeIZRsc5rXMXRUwVnnZZbM1zRxQ0ILYG8jrAMTgc3nozd/WAah60+T4C/sUCP7kxFJux2h07hWktphWi+URfvT7y3sGqio+tfhiwo7QgavVvu/7QLTfFSAGn0uD6k8YdLr8oRzngrK9gtQWy0M278MBum7QAkMH7weivQ1ADD6Xi82BRuY13NLX9+Cbd3MLCa7PDsuoPcO8j1tXrxlrbB6bg6L4PRDtbQBKWl+nDUrDZjmbB5h7t0rWJtL+PtoEknkft2x+NvM88gTu+DzG4mUAag8+bzMoDZsVoE8tvmViZZoL0v44IdPvYTbw30NIbIUg3TNYCl8K07tn7nh5goOXAYjB5/KxuQT+Fm/xudL+OHnuF2SLhp1fP8Wwc95sXifMAZVEHHm5Q7R3Aejr37nL4DNWdD2wB3EZZPsFhRKCFH7033v2AsPOebtusQ22iQBUFpNfNhe9WxbvVQDS4HMcxYcMSsfmLtDMABUj2y/I91V42UovVgsWw+4ckEFJRFF01LcqkF8VIJa9l5atUjb7/xRLDzcNE7/vaWVF4SetVBF+imJzHymbL04o3EbfqkDeBCCWvWMQrOIpnkLoGx7O1ly5Zljm7gGbM3rMAJVLUgX6vp71xhP+VIAYfC4tmzcx5n/8odVVvoQgzfocYZm7F0Iblke+orj2lvGEFwGI6k+5sZS1vHwIQdrjR6u9CD9+uGW1BUYFqHyifb5sjuhFAIri+k8MSosAVG4KQQogRf272ePHLzYDEPeOcvJlq5vCA9CuI3enk5+mDTAA5jv8pBZUngepik8tOLhBACqtaR+qQIUHoKgee9MPhBvcxKpB50DluUklYdhPfF8wCB+qQIUGII68qAb28ig/zWocP1LPdWZDJ8hv2cyMSJlxHlipFV4FKjQAceQFhsU+QP4pIvxk3j4yQQgqMarH5VZ0BigsALWrP5MGGAIrffyiN/QfHK4XtlpHD8gi//3ojTYYBlRoFaiwAET1BwjfSwdqhVdgiqxAARhPkVmgkABE9QcI39H9dfPEVj/2Us1CEC0TIDiFVYEKuXtR/QHCdvipmnl2j19HCSoEaSaIEASEpahMkPsdjOoPxsGqkOIp/Bx+qm58pHacKlMAglJIFSj3AJQkvYMGGBFv98Xau9Pf8JN5OoD/RgDLFVEFyjUAseszEC5VV7T3Tgh8rlJVwQYqtRhe7lWgXANQVI+Z/QECpPkaLTcPiUKQKlbIH5ufYhR5V4FyuzvoxHdD9aeSbrJ5YdBCXmY+s5/dooGA5FoFyu/1iJVflWVz92b2esmXhs5D3mOHjRKBsERx7ajJSS4BSNWf5PZzyAAIijY6dB0ePrzcNC6xR1C+bH6dOfqmiqJ97Y6Rc/lUgKj+VJrNm9imRwxyohka1xsdnr3QNC+eaJhjpxvGJYWgHx6eMHDP5lYVHH1TUc3aIZMD5wGoXf3ZZ1BZvMWFJ49VVKr8vH4qDT7vzjfNiQ/chqDtU+wRBIQgiqKj0zPxRuNYHhWg6eSH898I/GXzLY5ZDvdU9XEdfq5cM+aNU8tbXyc+cB+CtHv1s3sIQS7ZrNJe/8KgmjZ+2VycMY45D0AcewHbFSBmOdxRwNTcj0ufJw+1F08s9QzGCkHvX3A7E3R0f61VDQLgL1WBjGNO73Qce4GMzaXwHIfhRjYs7PLrq/Bz5PhS8nP/quAbSVvsk6tuZz80D0Q10Y1HLVaAaJ9X2sadR+44HZ9xGoA49gKZWxbbYFSA3HC9XHyQ8JNRhejKNXchSNcQK8Pc2MAQNCyp191WgZwFoK/PLG4zbHyINrsrwXhzt+2o4w0DVQFUqBkk/Mit1t/faIUmV1gZ5sbDLIOHPU43RnQWgJqxyW0zI/jP5oOMbfbt0oovDQe7pGXuw1Z0FJZUMXK5kzgrw+yzWUWkAoSoWXfWBnNy12PjQ3S7ZXUlmIElqvq4XvGlweazIw42ZyHIJVaG2WWzBfY5q8AQmYOulsS7eu2bNkCHQVsfg2B41Y48Dji1sbRdlaNsvyBXVAXjzDA7bM5VcY4gjMMl8U4CEEvf0c1mAGIV2PjyOONLVR9b+/rY/Gf1wplh9thdBUYLDK0l8U4WVFkPQLuO3J02LH1HF5tvclObDcb0rafcnvGljQ6Pnba7n4+qSe/OuwtB+nq8fIBW2LhsXldshIi2SRfD0PYrQPWYpe94wHWrQ9C8pY/D9dDzShsdjkuhyuUeQQxFj8d2qLZZOUbYXHSWrN4FGX5GPzaXs6pdQatiNDum3A49q9I36F4/o0qX0xtnFA737sznnOiy2cQmiHBn2vYwtO1P+bQBetAD8ablEIThpMdcuK1uaBdn12/tt9ohy+WA7Mx+5oFGYfNzSfUH3WwPQ1sNQAw/YyU2BxpZsTM810PPmtHRCe950MNRlSBX2Cl6NI9Z/FxSAUK3KIp+z1hkLQAx/IzVaDDWFvYCGs7R/e7Dj+uT3LtdvBq3Nlh0RV8v5oGGY/Mac3kUCoK1zeYwtL0KEMPPWMXnX9irDtCeGNwze9wOPSuI5B1+Mu/Ou10Z9vRONkkcxiZ2gYZjNneGtnZXTC57p6e2Inw2B1dpgQ1GQXHGYRVD31PXmxSuRivDXFYLju5nk8RB2azMfmqxYowSsbgztJUAlJSkDiU/OdmqGuXBbtD50tdIcyyu5LHia1CuD07VJonMA63O5ueSTRDRx8YvG3etFFysBKAortP+wqquWnyjYyn86g473uwwjxVfg8qGol2tDOPk+NXZrpIxA4R+opqxkjnGDkDa+8ew/B0DsP2wnKIt0ZfCj8u9bPJc8TUoPTB/7HAWSZskMg/Un+09gFgFhhVY2RPIxh1y2gADshmCvspKsJ5UrXC52aHrc7nG4XooWvNACkJ4kM0l8FR/sJo7jTuHzJjGDkC0vzAMm0vhGUx9kOu5H83Z2D7jyzbXx2XovDDmgR60ZbO9iiPVH6yqVht7T6CxrljaXxiWzaXwBKAHuZz7UfhJd2D2/+08nU8yTjAP1JvdFWB+h2x4Yfrr345/y4xhrAAUNyKWvmMoNkvbBKDlXM/9aNPBUI4ncL1TNPNAD7L5eWQJPAbRrC8+Z8Yw1t2yVqvR/sJQrli+sRGCUq7nfnwcel6NwrbLnaLZH+g+21+H65wDhgFEUbTHjGHkANRuf20zwBBsVxB4ABnz8ENu534UfHwdel6NhqLfv+AuuLE/UGqT5QUJDEFjQGO1wUYOQLS/MAoNN9oMQY8RgFqVCJdzP74PPa8mbd0ZJ1xX3kKxY4oVYCjGOG2wkQMQ7S+M6qLFFTpVX5Ksc75czv34stPzOG7dzoa3jRPPOv4ehMDmCrDrDnf0RvmM0wYbaSlDq/0V0/7CaD5N3vD2GjuqvBt0Wn1w9+DVvNbenfr6Rq02W2erp/Prrj/fqw3k4nvTK4x1PzBv3r5/jILCT7ZqTZWFHY4Cs85bU7APPSyOyu4ANCvAMJRWG+yXb0efmSGNFIDU/oqq/cKDMdgscevBq5tvFcvmmvtRMHFly2b98Ku90ytU9V5+nW8w1nWo/YG+fdzdyjNf6fP3sMU5KJd7OKGc2m2wV8yQRgpANQsbEKG6bIcVvdWXMQBlVRcNmOohvyH5468+kv25iLPQPKN27NtHJlpVIP1QJer6vZ9NaatDDECjaKO2wYYOQO3217QBRpQNQtt6gIe6Eky//yzcPNoONAo5+mP9eZfVHbihELR9heqTrnuFoSwc/ar1x2lI0mHBIWwy2c1mW5EzwDCi1tlgc7PRjWH+R6NUgKYNMCbNSzy6086N09dB6Efb1Rq1krKAcz/0EG6qKL0Gsj968BpQAFJAUghQJUQBST9nf+wjmwPQVH8wqvbZYLPD/G+GDkCc/QUbbA9CK2gU8eaoKo0CjULOY8mDIJtJooKDUeiaeXhz+utewT6rIPkUjmxWgD65ygA0RpSO5rgLQCox3YnvThtgTLZv2NunauYjhzsVK2Qp5Gj2RnsPEXJQhKyC1Csc6TP1eSscNTt+7TYY2a6+cgQGxrBt2DbYUAHoztLitKlzw8f4bN+Y/3lyI/7oshmbAo2CztRmgg7CsmVzeu0+sXX5yj2Xwcj2/N1VWmAY3cYvzZfanmdu0P/BUAEorke/x2MANmRle1s30FHeRPU2vX0qbV1tald4mM1B2fQKRpo10tB1ZyttlA1Kd0zZm//5vMQr5ZCPqFnXCRVzg/79QwWgiAFoWKR+v619ZnSTX2kOqDPsTLUfCFR1UFW69vV56H5xUBDSj0+vDRaKtmw21lD9wdgioxnlmUH/9oED0NdnFrfFsZk0gCW222AKQbphZzd3vZ0SdoDBbWm3fTsXKOgzpc+qXlg622f6+2xWTBmAhgUbvzZza9vHsxsuDfI3DxyAGo3mdK3G9s+w5+JVY5WOI1AViDYWYE9rb6Pkh86dE7XP9Nm9ZXnPok+pAMGCicbEdPKT3QDE7s+wLdst19Y2+qFuiAiERNXUJ7bqV3Y/bxc5AgM2DLEcfpiSzrQBLHO5dB1AGAg/sKi1HH6Qv3GgALTrCHv/wA3K3gDYARoWZcvhVzVQAIpq8T4DOPDRZW58QNX9JRUgWNReDr+qwVpgkRnppFVgNRx8COAiK8BgU2R+e7C/bRXt4y/+3gCWaJXW41s1SFmzeo4QgDBpBmj+cvPekntgXOuiNV9Z7ViMVVeBcfwFbFDQUeBR8GGZenloFV/3cmhV9W6uUtnT/6ZX9W/TANeGVg1u6Fo5yDUVtnSpfbopqlaHKgh9mASiD2mRY0T/n7KLMWdW+ntWXwZfi6YNMCQtlX18a7oZoUIPGxH6IQssWUi53j56IP3jeFmgSX+d/u90AnkmhOMKskC0oSss6SDRzr+u61J/fdO9PzbsJVWw1oGvOyOzd2ft3p5DCkOaF7x5m0CEwdTT7DJmAGL+BwPSw+QbO9NKD7sv+0E79x45vtT+dXUeHv1+rxfv/Wqwr4UexgpEPzg8cS88IT/ZnkPZOWaqDL1/IW2VcW4YVjRAdlnxCcX8D1aTVXr27qwzz+Ohb762xIPCArVo3j4y1NGJcIwwhNWsNge04if6y6WlbZGdsypRIgo9qvB866k6lZ4Rfd4+gXtD8rVzFRxPfNDkwWCJHrLvzjfMs3vc3BD1z9d3SruZ29oZvew654Y0K6Q22dkLrCbDfe39gOb6/fUVAxD7/6BTNsisNhehZ2XZfI1CjuZoPr3WbP25q9eWt2d++j03VQW1vk580DCwR4FSrRgXrTBdGy+eSFuV+mxtesS0fqgF99Xkx1Tr4FFmk/p5orWqtG6O7q+1ZoWyyhCqrb0f0Fy/v77y3XfAtfQoL92MdQjiM3sIPb1klRwNCfcLOf0cfqrm7IGWzf3AHgXZ108tOWmF6QGuioYe2q1h9GvaHVl/5cHrSFUihaPH2ie3b3goonLUpnvU3vYAtT6DCkPvzlMJraxVMsyKd9/dRxc1/zPQmRooF1V71OJirifVHXT0cNKvR12VouDjqvqjSgXVH3dUZXDRCtM1dvDNpZE3B03DUPqzPre6xjggOJXNC9Eiq5wb546t/Uq/v9j30/H1mcVtcdyxaAKlR7XnfutKN8xftX8eJ+j0czypIrgIl2p9ffO1uwbuKGS888IaJ60wVSuOnbYbXjsrRtunapWuFmV7DDEfVx1L0eL2j2c3XOr11/q+gjYazelabZjD4hGqqlZ70nZVWtlRVUf7jeRxU1R53tXXmtaXey5bYc8mLyAfXrY7v3KldY1n5+6lFRC94ExtTj/7W1qttFollvl37jFEVagaJhoT08lPwwWgWq2+Z9C9MhCerNqjfnkVBiuLCjvd9LXW7I8LvNXmx+WqsJn99VYrzKVsg8H7QauxLBRVoVKUrSLT51GfHZbTl1NUq/WdA1rhFSaeNCidqrW5dFObTVoKvpwv5GrwmVVf+XO1KkzB43BSkc37+7k8FDXv/bfoh8uqZdH0eXz5QBpkVQ3iRaJcku/kdL+/1vOKZgPE8tHNSzcx/agStSv+q+/6MROjlT7aUdgFNjwshqsNEnXdqgrky/fU1cyarxSEWEpfHv02ROz5NNQGiAaloJuWbl76UbXwIxpY3e7Jjfvofjeb6PHGWpysFWabrtusKlE0VUiqNh+oe6WCrX7oxQVha2+I+ICery5x1NgWGQagQ8Yy9vv2bNXAY7HtIVpf5aUAqqNgbM/LbG9tPBoVfiK6Ly8QRUjnhCZaLxj6PjMwHaaoEfXcEbpnykkHoBGizooP4SdVdOUrHXx28zbPqq/iZavCXHj5wMSy0+yLUMXKcbdsTkh7d/H1CE+/Qeg+30kGoENThuCT7s/RMN9OHuo22wpFt8G0cZ4LtL78oSXmnziYF9G16yo8D8J2+0uLEbQo4ZNAZ2sIQmHqNwj9wJXNAHRY9IF86UCYrS4tTf/ocjO5GTaTn5dvNmh7uPS9+Wbrxps33SRdzHKw4aF/9Fk8+cKEk6XjeikoYiDX9vWrTR612aNoFeq2qbRFrWX3Ie5DlAU6hqX912sQ+oEnDCfAh0E3j289VWttnBYShZ6fJ330+ST46Mysfjss68aiv9fWw0Q38rwDkMs9f46dpvXlG1XjfpxUMF0Mu/9hUgX6dgHtTttVjs55Jn329eLz0WV9Lhutl56nd4YVhrRFgF7UWD7vv1+bX0+arg0RHwhADED7LcR9fDpDz6BvSrfa1SFbN+CsDZbnm5q+Ty4Gn3WzLXowFr2puvH4Vvt75uja1aaLLlac9eOi/bVSQNBnM12skIYhVYb0tQwhDGVbjBCE/NVrR+gHAlAtqk0aeEk3I7W7Qti5eZTQ023eYgCSPFeD6XvkojqXrvpiJYrP3jjVcHLQraqJ719ojHxY6rBsz80Ns4IqC0Oq2qrKos9SCJWhva0KVpT8XmNWZ/qmR7Z58FO6yvHxyF8ocz42Qk8n/TNCbYP94LCrPX8avF16Ll0y3bA+vJwNRB/L6Rq2HeBHHXxW5ej1U+G0ydLWd9Q6Zoil8x7pkW16vaawCaInsnaXqzkSW7LN4LSNvs1T0/Wmq5ufreCXVxtMQUtvrbZppRE30zCoFaa9gWw/pF0cltqLHuI2r2FVLm0cR9PZJnt8axqGntjq5/0xWzGm+xdtMS88kG2WvaJoBVjDNF8xKJw+NP/6j+refrh1Mzvzy6b57ommOZ38/Nn/Y8yikxnN2OrXQLd0l/MzCq2vHaw7mc/6l/82v/YHxqPPgj4jTztYKv3VRyLnQVhBa8eUvf92VYbP/43dz93/ldxz/sPFuNVu0tdaJ9r7eHirgqSug8WlyPz1Z4SgAq3/z/+L107+3x+/+g/Zn1hWAWIFWPF8Xt2ldtSl5A3sf5vPb9mnworNNpjC1IaH3AUJDae7mNHiDTI8+oyoWmP7JSaPgWjbq7+ype8u6HPx+YW0Opq1yHzbo0fVZ+0HpvvDkeO0sYuyFC1uT376LPvjZVeJVoAZFEZVn5Mv1L0LPwogmmn4/deWzJ+cyHc/kqwNZotuRK6qaq52fOa4i3BpduWmg7CttrirHaIVImyG+NVWf9mke5O+5jocWD/rs+MTfV01IF/k5pZVVo+Wb/K87EnACrBiqOqjvUO0i7NPK7x0M9HeI7/73butCoTN+Z5h2H74P+3o7ZA9f9BNAf7HH7g5LNXVQ9T256OIuTUFLv17tVmo7mGqxPlE9woFoRBW9JZKV8ZZPgTNCrDcqT+sFUO+fBBsr+SywfamiHrD1QPEZhtsr6OyO3v+hM/V3kCqFGuHc9vVFdvL34u+frPB6UcfabaCh74XPswK6Z7/zgsTrZfLPPd3qrbmZOcfLW+BGTNpkBut8Dp+xI/w09nm8m1r92xTRJtsv+W6qP6k3xNWfZWBqxam7WNWtLLK5v1I9xFf5l3036G22KE3/WmPZbNBLweyv1vwouWHoi67a0cEoFyo5aWqz8z+euG7OXcGnyLbXKt533IZ3eYckKsdn1283aMY2VYRtqlaY7Ni8/ROu4HqfQ+3behsj/kShFQ91suwi+0zsMykVrtnf3DvKfD1mUUGoHOQHphY/PL2UIJPJtsU0RZbDw63Oz5TFi+T9HNmrFP1wMZAtK7lJ7bafQD7fkioT0Eoa4kxIO3W4l3zj7Jf37tzx0vLp6Nhn1K+wk+Rpc7Qgk+nsxfsBgIb+5yo9eXi+8ngc/m4GohOQ/j4D03bsz8+tb9W41MQ0j3FVqjFg9pL4VvuDUE3o3iyZii/uaKLushkr+DzXlKCf28+Dir0dNIw5bN7jDWq3IxTZdGDh8Hn4ehrtukR03eHZIUEXavXvzClbP+5HIhWi22cwX7bc2w+tr9Wo8+efuhzrft1UcdtZGeKsWeQfZ1L4e8FIJbAu5EucS9uY64yBJ9M9kZpq+Iy7tEY+r7aVqbBZ80z6Ov7WPvnUb5vWgGoHzpHKvt16BS6dxyxe1jquOeE6Xtls5KpIBbysS0+BCF9PzQX9OKJRimue290ZJ37n0KWwFun8FPkYJs+wMdOh9XmWo1+TzYraX+Y/LO0T8iw9jo6gyj0wWdVNvS10WoiGwP++uzox96d6R/ra6PAquqC7/Ml/ei/O3u42jTOOWG259h823dnVGfb15kONi2igp/NBak1xzmAttxfCt/5GrLRwJosvRcx76MP7J994NdSdlvUQrB5Ixp1TyAXy95DHXzOWoHa5t/1qkb9ux7dmf77FIZU2dTDNrTQqK0mXOxHM2qgtz3/E2L7qx9dWyc+SM8c0+e+iGp+tkyehREWdCyF7/xOThpYUVT40QNUbwq6AZYx/IiCyieWf2/DDpDqBujmvK+wbm6q9mj38nRr/1ruWzroe6A2pP79oe2jcqvdmrZtlNWNtq9n3YfKeP/J9hE6+OZSIYPSRc+RlsjyZfDtdfFUgCwoKvyodaINvqpQJrVdXh9m6W963pf9N8CPLsfBfO/Sa3yi9cP2MO+o9BAPLQilB9wa64bdHHFvCY6+yJPmcYpaMUYIsmJjthdQ68pfNHcnDcZWRPi5cs20Kj4qqZdp1mclusHa3E8lG9YdhGYBXHx/Z0/7X/1RhUc3X23l4Evw6ZZtKGdjWXgeXj9lf7uDYZbF6++1/b2syqyKfp9Hjuf/0kkIGt+vza8n9XMrADWXIqo/Yyoi/KhlcvDNu6Vtd/WTrjCxGxj+YIAHhqvT3nUD9X2GRQ9JBZ8iWl3D6myN+V4N0mf3Ewef30FPi7ddzQxp7x8bsrZY3tUgQtB4oqU1k/o5vfonliYNRpZ3+FHVR33oKp8TZXufnGwYeiXuBp/9/j6mZ9aFd3J1toKmqC0oBvXGKTenxQ9SBWL42Y4iqkGEoNHVouh+C8w02QNoVHmHH836qOpT9X0hbB+NsdoDw9Wmh6ri+frG3HlmXaj0fdVMjM8PCn3/XZwT9uwqZ9S5GH6u8lLtIqpBhKARtTdDzO7okwYj0QMij/CjD1Q264OU7VU0Kw1Du6r++PrAyIJ90WfW2aLv3w8OT3h7vICLc8LSzRH7f/9s7/1z8Sr71EhWDcprLyR9j0OZefNFUgH6rdbP+n9R+w8wnKP789nkUNUOrfCq2qzParQnkE39hqG3T7mr/vgoCz9lO5laAfftI36GIFfnhGVHKnTTn7P9/a1yS76bqkHawTmvz7hm3rZ7ujDBR3Hc/Ip+LsfrXQHS1O3+y6ebiio/VVnhNQwXewL9YY9ysosSc7YbsG+K3MAzD3ro+xqC3p13syy+1zX99E6Gn/Og+3de+wb98HB4c3qFiWr3K0AxLbCh6Cbquu+qcniebxChsv316R6G1hu0iyXfr5/y7/ta9vCT8TkEuVgW3705oot5tqoOPw9C85pqibme29T1rJEMTpEfyP0h6IgANDDdPHSRuaS3BbW8ynKejku2h6Gls5/uYvbHx2Xv2bl1VXmDVAg66uFwt6tl8Z1VINutkqoPPw9Cn/d05a7bF588Xs5LYlL/r5btiIjB6IHo8iGhJe56W6CcPDjbw9BZa9PdkRf+PSw0Q1C18vnTO/1cQePiIanQkw3529/7h/AzKH32XYcg3b983/rBB8o+tS/NlwSgAemicnlh6e2P8DM828PQKiHroEoX1Z/0+AO/vr9FHfDoA/3efRsedTUfpoqXi1DP8PNw9PVy3QLX1hXMA61s8a75RzWzNDFpsCpXZ0BldMNj2Hk0LoahXz5g/0HhY6vA1e7WIfmhh8vj06NtjFXZDtk2Mfw8Gt0H1BKz/T3OZPtfob+7a379FepkA3LZ+tKHwceh2JDYLiu7OO7Bx00PNfdTdXpYKAT5xNVp8bava4afR5cNR7sKQa627yiLuqlvrHEMxupcXkiEHztcDEPb5GP1x/U8W0i6V0r5QK1drulycx2C1ApjVVgfjfok8XAArkqJWuVF+LHHxRuzLb5tZ6Dg88wePv6d9Dn36WHhanNEW1ilaofLEDTomXBVVeMcsJW5Wgmkt6c3TnEDscnXN2Zfqz++n+qeN33OfXtYuNoc0Yb35rl/2aIQ9OIJ+3tAyWpnwlVWFFMBWo2rM6COMPBsnd6Yz17w743Zx+oPswG96WHhW8vAxeaI4/JxL6vQqY1/zMFZj6udCVdl+qpMGvTkqvqjpM/Nw40PL/v1dfXxyAtuhv352DJwtTniOBh+dkMVv3fn3ZwJRxVoOR2Iyp1wBS7O+tIeEK63RK8y3x4Wf0b1JzjPejgb5VMVUfcvDmZ259jpppN7GJ/7ByUhqPaPDB7g4rRkVQI428u9dz0Zhtb327cHBSdGr05VIB83R/Ql2L/L7I9zb5xqODjix7/2bpF0InwSCTkKoxfbpyVr7ocdU/Px0WU/lsT7+P2m/TWYP6zIERnDYul7PjQiYXv2S+HnaapA9yXFH74afegoBJt83ASvzIpeEu/jkKgqmswBDEZfK9/ellUFKnrpOeEnP3qRs131e2Irj/xO+mpQAery+NbIPGzx5sdbU/6KXhLvY/UnOwwTq1P48fFhofmQInEfy5ftVphau7TB7tlYiwlAD9jjoPqDfBW5JN7XJcLbp3j7G8YOD+eldF0VFUJY+p4/fb1tV7Npg92zka9EDzYHIKn+FKeoJfE+Vn/01ufjA91nvg6M6/oqorrJDGMxbFezaYPdx1eii+05Cao/xSli5Yyvb8m2VzRWge4DPs5MuagKrIZT34tju5rNveA+AlCXTY8Ya3Thcl5OsfIOoL6+JVP9Gc2Upw+LvGfcfNvPqmpsVrNVDSYEpWoRO0EvY/NBobemWx6f5lwFeVaBfJ6R2LKZd51RPLbZeEn3lbyqQGrjs/FhsWxX4AhALZwF1s3mg2Ke6o8X8qrC+TwjwcqP0fi8bUBeVSDa+H6weR97jADUQgDqYnP5O0de+EGVGdcPCt9XyPDGNxqfA1AeVSAWcfjD5vOE/cBSBKAuNh8UBCA/5PGg8H2FzMNUgEZicybQBddVIKo//rh41Vjj+3WdFwKQI6yY8IvLB4Xv1R/aX+XlMtxT/fGLzXsM94QUAagDZcHycvmg8L/6w3U9qhDuCa7CPeGnvLgnpAhAqAwXq8HU5qTahyIp3N+6zTWIwVEBShGAUBnP7rF/wrdmxnzdMRjVsHdnzUml6tk9NR6UHuF7YR8BqMPN23an7Llg/aHvh6vDQP/wKfvBChjU4afc3MZ1/3Lx0oDR2Ay5VK1TBKAOtjctZOmxP1w9JEQVIJ+rQNzsRuf7185V9SdDFcgftk8pAAHoATZveGw25Qc9IPY6PgHZ9yrQTW54I7n+hfGay2AvVIH8scfiIaYEoBQBqMstTt0tHdcPCfG9CsSQ7Gh8flC4rv5kVAVC8WzeX6gKp2rJl2HB4B6bmxfqgqV8XCx9/fMKJj5Xga5cMxiBzw+KPIK96DPkuoKKlekexgyQdQtc1V0+tbx7M+XjYqkKl9deLj5XgT7/gj1dRvGpp7u551X9yTxNACqU7a//Jxxu28JV3eWK9QDEEGGR8npLzvhaBeJYltH4+qac93Xte4u3zFzMMHI/SBGAuujCsDkwyhBhcfJ+SxZfHxQ2zxGqkosevikXcV0L2z0Uw3bY1TOOIehULfkY3TC4RxcGVaByKGpu4eUD/j0oVMmg7z8cH8OPgk/e1Z8MVaD8Uf1x6oa+sgSgLh9etjsvQRUof7px7CjoZp3HsvtR2L6uy87Hr9fenVEh1Z/MH3Afy5WLsPs+Z7xlbtAC68HFIYC6kDlsNT9FvSX78u/v5cPLvPkNw7evlw/B+vGtrGzNi77Xtr/fn3/hZ2WzKMlXN6IC1EVtMBdT8j62RsrIhweF/ht8q/rZnm8rMx8PuX1mjx8vUVSz3XPV6rx4lerPPXHzH2px8v8MHuCi/K3++dH93Dxcc3Xm17B0A/PpbVnB/uyFhsHq3p3360GRBmo/qorMNLp3dL+bsEv7674oqv09LbA+1AZz8basmweDhG4948mDwsfZL9pgg/GtTeBTS5WZRrf0vXZxigDtrwfpq7xg8AC9Lb837+ZtWa0w5oHcKGqJcD++vS3rBsgmaCvTy49P7S8fh+o1jA37FHwOO9pu4MQHVH87NeP4MypAK3BVBtcN7QeH65SRHfDtQeHj2zI3wpWd+MCvNoGPA/W6h1HJtktf05cOuPleq/pzlvbXA2qm1lww6CmdmXBz0WzZzDyQbUUufV8JVaBwUP0ZHBsj2qPv8/EjdfPwQ27uX7z09BBHnAW2Gr0Nulo5o/NdCEH2+PimLAo/hz17WHBD7M236s9LHq8cZWNEO7Lw46p1T/Wnv5pZmlgw6Etvg65mgUTVAd8ejiHSzePxrf7m+Wc9WcKcoQr0oPfm/ar+qPLjY0Wz0x6PP3MhcB1+hJedPuqNhVptImYfoFVoFsjl/imqXBCCxqM30Yc9n6nybR+oN0412BeoTW/JVZj9sf39VkhjlnE0eYSfjy7HVH9WUGuaBgFoFZoF+rHjFE0IGo+LAwNt861loGrHj3k7bNFb8s3bflV/XDwYXzyxZGxiSfxo8gg/Mnuaz3c/tbvr/7a23qwnAA1AVSDXLQNC0GgUKmzfSHTjcPH99m1wNI/r2ndqffn2luyi+qMKl4vWJ0vih6MFMHmEH32/OQC5v7VrzD/U5mY5CmNQebQMdOPT4CNl5cE97eC0ZD0o9P22zcfBUVUF1AKqIv2+fXtLdnFuYOcgrO2ZEJbED06VvTzCT9rSpfqzEmWf1pMjZjPEgeTVMtAD/e0jE2yWOAAXy4Sz/Z/0/XZRGfBtFkgtXoWgqs0D6SFx5LjdltC4XC1771ze76IKxJL41SnY6rPvaql7Rp9j365rDy3o/7U+acm3gyrQgPRwdHFOWLe8yqShs/3m2b1k1MU2CL4elHqsQvMCN29nlS//jrxwUf3prgbYvofpc0jVujcFHgWfvMYb9JJO62tVC/p/7VeNaMFgYK+fauTSMtCN8J0XJrzdCM0Htmcluk9LdrUNgm8HpYqCX1VCkN6QXQy6j8NV9adXK8TFWYcMQz9I39OTL9Rzu4drns23g3x9lrbAOBF+KHm2DPSQzPPtISQuhp97LYV2sQ2Cr6tn9Hst8+yAvo96gfEt/IiLwed+m+C5OOvQl9PqfaHQo/CTVxXfx3k2X0XLK0DMAA1LN9A8lxDr5shc0HK2h581G9GrdOzqYFwX7Q4bFALLWAnKZiN83BdFD8u8qj8Z25UChXqGodOWl3b4z2PeJ+PjPJvPdBCqfk4/cZwHNpK835Z1c9FcEC2x9GZre+fn91d4ML7b2iXYWOfbQHRGv99vHy/P6jD9Pg696V/bK+Oi+qNAv1LYU7BnGNou7dytqk+e1bAs2DP3M4Q4HftJh6CXagxBj0hvy+/n+EapioEemlU/Q+yJJPzY3Pl5tfNy9LBwEXZ9Pk9JD9AjJQhB+n0o/Pj6gHC16eHrA2zjYPuaruowdFb1OV5Alf6NUww9D63eWNBPaQCaYAh6HG8UMFOgN4yffq+6LbG9O90OP/eigORi08AZj8OsbqzffO1uUhEKsyWmVp4qWT7t8txJn18X1Z9BT7VXOLR976raMHQRVZ+Mru88ViWXTaN9AkbrO7bWrFkwGMu3C1hVopunQlDVBqT1+7Z9SOSg50C5qAJpywPfHxrHTofVEtOD/WBS9fF9RYyrObBhzjWz/QCtyjB0kVUf0feYFV+j+Q3zGwv6uXWltneDpg02hnRlWKOQB4RuogpCepBWwTN77P4++w0/9/t7XVSBfFwW302/d1WDfF4lpnmIrOrj67xPJo9NDwdhe5VjFYahi6z6iMIPOz2P7EZ2Asa9715MABqbbjpFzUxkewZpPqjsbbEnchx+7sXFCik9NEKp5Onm+83X/FpNdbM9o/X7r/lf9ckc3e9m2fuwp9rr5e3sBbvXdFmHodNDTCcKq/oI4WdsC9kv7n0CIxNdMhhbkSFIsrNmyrpSzPbeP6sNP/eiyoKLmRi9TYZSxdN1riHbLAgVdb13Bp901+4whkH1+bQd5OXEiLsAf3jZ7tetbMPQanfpBUWV9h0FVrf08kX4Gdu9Ys/9T2B7XTzGpxvQwTfvFlaCz1aKlXFI+ukChp97cXFEhvg8EN3L/SB0t/VzHgOZN2+noVVtrt/97t2ggk8mz00PB+Gitft0SV7CnkleTP7d9+pOvmeDyjbwZObHgtj8VfbLiewXzbi5UIvYX8YWlZV1g1YQcfGmN4hsSFo3RT0kyrBU0vbeP6PeULLNEW23rfTm/MTWyPobeR50nZ29oLflptk2ZcyerWlFy0ZVK1utNJ8ErKvXTHCBp5O7wefxKgMKrzum7F3Puu+F/MBWpeclD0YKsn1+fJ9pC0Z8f9/DewGoFrMU3rZsMPro/rjQVT7ZLrMKQcMOSPpEvwebe//ohjLOTUU39707dYM0VmllySdXl1rXT4gUTj66bJIf6QNZ7YOpzab1ddLDRD82tR8q+n6qVaLfq270t5L/rX6ta1Q/riRh5/oXYQeeTumyd/v3gtU2PRyE/vf6b7P1Gcv2uLp4NazvnYLPt5Kvww4PBrmzHZ7Z58eeRkfWuReA4onmpSjmvCkXtIRYN/Wih1z15rl3Z3QvCIXmCU+qPxl9T2dPL5kfHp4wNmWnxZel16/wcvFq8pBu/VG1b+Su2iiDbHq4Gl3PCiuqQNqiKuDFq2Fcxz4FH1H415mThB+74om7C9mv730a15v1rAJzyJfzlTrng0IalNZ/t80bs9h4M/3osrtl8Zz7Vi66fn1Y9r4S28P9IdxjdkzdX9nlS/jRqe6aIyX82Pfx7IZ7C77uXZ1aFx9zKKpTqjho1YwPm8mFFoRs7yui4GLr5uKqUuPrOWEYjYvja0ZZ9r4SvRRUZU8gH4OP6EWZU92dWej8g2VPPpbCu5ctk/dloC2UIGT7v+3PL9h9aLhYFq8HBwffloOrip4G8W1XCd6zfC37thrM1+CjMBvC7uWBW+j8g+VXJkvhc5Euk1/yasajMwhpVsmn9ovtoy90o/nI8nJtl8viq3i4ZJno+n1mj5tl7y4elrb/mZrdK/oa1iD+M+3zE30LPqIVeDqwl5VejnUsgZdln8pmx/IwuKeH5uunGl60xDLZ4Yy6Ufiyq7TtEvqoe/+sRAOkP/6g2jtEozd9nvQAts3VC5SuZZtzbbqGi9oKJNvAUPv46GXCt7m67OgWrRYuy0pHr3VlnGVXJUvh86cBRl/3eFD7JQtCRfbxbZ+3876jFXB6c3bxfdTvv+xnK5VVtgWFbemeS+5aJbY3tMy7DZa1uf79v5pwFkDHpVVeh2h55Squx8vGfJZdlVoKb5A7H1tinXQDfzu5mWRzQnneTPTGZvN4CFXbXO5L4mp4saxnK5Wdq2XvNgefe1G4stnSzeNojKzN5eN8TzdWeRVjvVnfPwCdn31owXAoamGyQyZ9aol1yuaEdApyXu2xx7faXv3l9sGhcOXiOAg9QIrcTBPDc7fjs/vNTNUG+yiQKpCCjtpbWZvL5+Cje7tOCGCVVyHunQKf6bWDmxLStEEhdGPTuUq6efo6+9HazXdnukJJD3y1lLSs3EUP2/ZNM49ysza+3D5ld9dq0TWhcMVbo/9c7ficLnvP5+Gpz7XN9p3NozGyao/2VgrlAGF9396bj5n1Kc4DHa4HA5CmpCMCUNHS3ZrjVinX9lELNqXb3dfbxx+kYchWi8l2+0vzOXmEB/07XJwTphaCKm96g4TfXnK0h1OebfJsTyCbR2Nkx56MQqHn8a2mdfyMz1Webvo6quLDCq+Cda0AkwcCEIei+iOEalBGN6e97aqQ/rsVhvS2N07gsN3+yvP4DwVYF+eEhXxYalXoM+DiAa3PVN5H2Jy90LDaelVFd9gq0I72fli6H/g4zNzPzfbKUIacPdFjlfsDAaher83F3Fu9klWD0rO8/A+n6b4naYlabz26AegtaNgwZHvpbN6h4fVTS63hcdtCPyy1zLJtJFwoYm5En5ln9xhrBm2D7WgF/Zr5xs6wQk9GQ87p3mA8TH3RvQJMHrg7rzVrFu6YuwZ+UXjQnkHanyPdqNAEQS2s7EiHbF5okDBke/PDvNpfnbKBaNtBLpsv8eFsOSwX8uBzL9ln1dbvqV8bTCFny2YTdOgRfb3+LKn6uFxpitF0rwCTnlfZrqOLf5v8hUkDb4XQFluJAkkWhnr1xlXpsnkWlsJj3u0D0c3+p99bY30gWjQLxI3WH9neM7Zp8Fn7xRRVTbB9r1FwVxUom+nZMRVee6ubvkf6fX14mXaXpy6dO7Z2e/ef7P1pjeN5E0WTBt4KrS3WTZWhmfbhkHrD7KwOie3fU1FBIdsh2sVBmAqI2j+KVpgfXA4+F9lKaVWdjT3pPE8tqEHmfjTnowUPrO7yXNzsecxXzwAUx/GlKIoOGngta4spDOnmG+oNpXNZvW4iF6+a4NtfnfS26+KGr6+bBlR93UCzSly1vlzv+DwI222wUJatr4TgE5jYzPX60z1fs6Mew0LwV3bCvG/nio1CZfAnAl791Y+rkKIHbxkeKCFzteePuN7xeVA+fIZ8oOCjz/Lvv7bEkHNA4j6ZpmcA6jUsBP/pJqVl82UIQjb5sGRcb9HvzrsJQS8fCHcWrAyOH3EXfnzZ9PITZs1a99dDbxJ8QtQv0/QMQNouOvn2LhgEiSB0X9Htr07pA81YpwoQJ8YXw1XrK88dnwcxyjYWZZBVfH73u1mFneAToEvdR2Bk+i9ZYBA6eNn8gGZrQlo6b5NPq6Q0rOxqb6DsmAx2m82Py9aXrhMf6Pe4fcqYxzbXnB9m6hNmfEqkzwC09L0TMwhdHlUOQtpTZMvmiVYw+OSqAoIp9C3O1d5AolV1HJORH1ervs5aPE5mGOnRM+my9KnN6a9DXpo+CoJPCfUZgJa+V/fXZxa3xbG5aFA6CkKutusPgW5sV6+ZdiCKW+2GPCsnetCcfGHCyd5AOojV1awR7rO9T1VG16IWNLgO6Z2VnU3tX1ct7HRS4JxPXkx+foHgUzZL0eL2j2c39JwBWvGK33108e+TnzYalJJmR57dE+Y+QrZloUhB6FdfpJsz6o9d3Qz1dXexN5BobyBaYe4oPGjw2cXsj+0NO7MdllXR+Wor6ERJ4Kl22OnEzs2ld+PcsbVf6fcXVwtAv0h+mjYotez8ou1TtUrOCa3EZTDSrsEuqnD6b1QIghuq/Lh4adBDeNQWpgKNgo3CTlbV0a9dhLTQZW0ubSTLUHPpzSUB6Ml+f3HlaUwdHx8RgMou21DRmEalB6Z70YNF7YHtXUElC0a6mV65lrbS9OthwtEbydfcRSssWxXGBon2Ze1jF9LPYH+dIWdD8uvHWnM6VHQGRZuremIt5lrBip+aXTO3p6O4/guDytED/+mdtMdG0R2O0p/j1iqw7tYUrbBwuGx9aYsEBVb9sxVoHn2kvUP6I2nI0QosqjnD02fv50lLUcGHNlf1xFHjyfOzD831++srfqKmZ+KNd+K7f29QWY+25waoCtnTGZCuJ9W3Z/a4CZmq7HFWmD2uWl9i86gJUO1Bal205iv99gCSVT9xu48uaiXYNoPKy4ammRUKh84h0ynVGI+rVV+wRyFSA+QsYUdbzxPgO62+I1sSpJOYRABCq53SOSukM7tc7GcDexRYb3W04uR6ezdqBkDvy6ovajWl7SbT/uOoNaNFK9hPtLjQl7LLKlavAB25s8/Uo9MG6CFrkVV5X6HQ6W35Vlc4ks6A1B2Wuv9Y//ubq7Taro9wDMimFSqNvaqQnW0kDQZ37l6c/bXOfyZtp/DoOvsoCTzvXyD0oL9GI95/4fi6Myv9Pat++pkDwqCyMKSqAyeUA7ClM/S43J8L5bHa/I8M9JRiPyAMS2Ho8XaLjMoQgGHR3sIYVp3/kcFOZWQ/IAxJLRINI74336RNBmAgmjPUWXmfJIGH0IORDTD/IwMFoLjWOBPF9aMGGIHC0OcX0hUamsvYNmXMnq2sJgNw3zdfW2IwH1Yoswzy9w0UgNab9ZfumLvqpXEuGMai3v1Hl9XPT1eTqU32w8ODFSIBlNcGB4cDo5pW2vyw00BrO9uDRJcMYBlb+AMQ2uOwZG7Qv3HgzS2azebPDGAZ+wgBEFaOwoohssrAvYd6vTYX056FZTrYEUA4tDrr4tV0UFkzfM/usbNDdvoyxK7lGM9SfWlu0L934AD0y9m1l3YfXWQOCNZkhz3a8u3jS605gn8+VTNT7ZOyH2auABiZws7Va3Frddan17QcffkmmPr8PrvHWJEd+MogNMaw8PHshoHHdYabPo3NOyYyrAaDFdst9vw//8LcWzabDlintrSD0GPJD0IR0F92OK8+Rwo7V66ly9JX0lrhafEgV90TtGIUGEU0xPyPDBWAWA4Pm2wOPV7tc6O+0n57Pdvx5xSCdBxCVilKK1EGqAyFFn0udDxJr8rOMBSYHt1p57OsF5WzBhjNUiMealZ5qADEcnjYZHPoUbvFDioNRcsrRVqNNrU5/W/66iNUi1AOnS2sX7VDj+2jJD5N/pl7jR3bWQmGMfwnE2vnhvn7hwpAWg6/++ii+mvTBhiD+v02A9BqpfrV6IGgt+Du3We7g5EqR6oYsWIFPumu6Cjg69d5nJn10eXYzOw3VuhzpXvDrdsGGNbcamd/dRt6Bzoth6/VatMGGIPNAKGb5bgBqJ9+wUiym3V3ONr0CJUj2NcZcn7Vnr1RNafooWH9+1VpsnXN6/PEMRgYVtw075ghDR2AHqqvO3knvvuWAcZgc/7HVfgZ9N/b62adVY4UkB5rtdLStpoeEgQkdFOAuHU7DTgK9NlwsSo52R/7TP/dtj7TjxGAMIp6Y84MaegA1G6DzRnaYBjDls32NkD85Org8z95ySpHohZBNwUiVYzSpb9p5ej+n4vu/TmEr1+4SVdd5deqculK0nbbMWVnPyDayxjB3PnZhxbMkEY6hCmO4/koiqYNMCKbw46fBPi2qAfezWvpry+2/n/v30NnUMr2SVH1SH/+GztrVJI889580/xlEsgVakKo3Niiz6Ct/YAYhMbQRjypYrRTKGvNkyauf98AI3jUcguoqBZYHjqDUur+71UP16P77bx1Y3xqV82eruZOxjZbVro/MAiNYcT1eKDT37uNFIBUaqINhlFNWTz+ImsrVNG7SbVBb8uuzlPT5pIvnlhqfX2zClSnXnsnDdu26/z7h6mW9Pp79d+buXV7+QNUf79aK++8MNo732rUztLXqqr0tbY5CK3roswvNrDq0ijtLxn5bkAbDKN6zGKP//oXptJeP9VIHuo1Jxs56p+5N2mzHetT1bjY88/6+dDSA/UHh91Vy/Q1qvoRDqoCPbHVzmdbYZUAhIE0m0Ov/sqM/uqoNhgwgrIPQOdJb96vn3JXeXh2T83aYZdFOrq/5myo/OyFZutH1X3+hb2vwWMMQmNAo7a/ZOQnUbvkNGeAIdk8Af5T3hJbb94nPnA3e3L4qVrQK3P03++yTXjiA8KP2KzYsBIMAxq5/SVj3RXUBjPAELKVTLZQJk/pIexqNZy+Z2ofbQhwxZn2pjn8lLsKluZ+OL08lW37YAMBCAMZo/0l470W0QbDkGwff8FKkfveONVoDaK6oND6w8NuBohd0X/zSwfchR+FTgL4fdneRjb0GroHuo3T/pKxAhBtMAxrCwPQzugB5HIl0nbH1RTbVLVyNfejJe8u246huv6F3eXwwArmxml/ydiN8eaIGxChmmyuVtKhj1hO80DvzrudB9LKMN+5nFvKtgfAg5gDQl5GOfur29h3Mp0NZoAB2V0BRvuhl2Onm06/NjP7616/nSuguaxUqfLD3E9vNhclsBIMKxrh7K9uYz+N2sfPzxlgALZPgUdvmgf63FGLULMZx4/4ORStYKYl767oqAuWvPf3OS0w5GPs9pdYuVPEUWPsUhTKb8ND9naKVfhhALU/PYhc7g/k41C0zkdTMNPPLihQVvWoi0FdvWassbljPMrFRvtLrASg9Wa9JrFvGGAFtleAYWWu9wfSULRPZ5G9dMDdZoda3XTkOHM/q7F5qr2rIIvg3Tj/p2tPGgusBKBWGyw2VIGwIpsD0LS/BuNyfyDxZadol5sdCkddDEafS1tfJ9t7hqEckitirKXvnazdMeJaw9p/FMrJ5s2MFWCDSzfrM85o5qbIFTsKPi6Hnpn7Gc4Vi20w9gJCt6bFkRtrAej87ENzyU+XDNCHzRVgn1q8yZbdrfZJ5TcdVs1c7rmzknSzQ3eVH+Z+hnfrNkvh4cxCO2tYYfXOEccxewKhL5tvc9dpRwxFM1M/djgPpCCS98qw7N/pcuiZuZ/h2V0JZoB74qZ51VhkNQCtr62dNUAfNt/mmMcY3rtJK8flJol5rwxzecK7sN/PaFgKD2cs7P3TyWoAYk8g9GN7CTxD0KPRJokuV9DltTLM9dCzhseZ+xmNzXkzVoIhk1wJJ23s/dPJ+h0kjhpWS1QoB06A98eLJxpOh6Jdrwx7Zo/boWfO+RqPzTP6NtECQ1vTwX6D1gNQe0BpwQAdbM6GUP0Zj+tDU0XtqSe22n97Vxt1xmGFiXO+xmezBcYqMLRZHX7OOKkhx3HMnkBYxuYwI3MZ41MV7Zjj1U0vH5iwOvelKqJWm7mUbhnA9TUuWysOmQGC2B5+zjgJQO1haHaGxj02b2Q8oOxwPRStt3dby+OzFV9uh56btFctsbkUnhAE28PPGScBiJ2h0c3mTexXDudXqsb1yfG2lse73mdImx0y92OPzRkz2mDV5mL4OeNsGQU7Q6PTJosPL5tvl3B7crwouLx9ZPTl8VpV5nJDPP3eVf2BPdeZA4Ild6PFY8YRZwGoPbA0ZwDLrlMBsiobina5U7QCzEsHhp/f0XJ3rSpzJdvs8Cah2lu0wCpt7uPZDc5OmHB3Z5EodpbcEBabQ9A8rOzLYyj66Z3DLV93vdxdXj/F0LMLfE1hQ9x0O0rjNACdm12nNhjD0LD6FscyeDe08Z/rORhVdAYJNa6Xu4vaXhev8qB2wWY1keMwKmvh/J+uPWkcclsBMq0l8VSBYA1vlm4pFLzveAdkhaC9O/vferLBaZcYenaLOT2My9XS907OAxBL4kH1JyxqhbleDv7ygXrPjRJdH3Aq2umZE97DwQxQJd1wtfS9k/MApCXxVIGqjV2gw6KvsevjMqR7o8Q89vphp+d8fM5CBYwhuQOccbX0vZPzAJT+W5onDSqLZazhUasxXR1lnNF1oeXxCjyq+Lje60e/F/2eaKMCfmvmdKZoLgEoTXIR+wJhbDy88pPHmWEKQar6vHSg5nSvH0n3O+L6ycMtq0PQtMCqxOXGh93yqQAZnRK/RBusoljFES6tknK9PF4PuCe2ur0Vabj7w8tsdpgXWtUYVV7VH8ktALExImzgDT5/7wa+YooVX0Aw5vKq/khuAUjiHJMdAHvyWB7vAiu+gHDknRFyDUBUgaqJHn45aIbmk4A2DmTFVzmwiKIy5toZITe5BiChCgSES4EihCXO2RlftEzDRwCqBtfHXvSSewCiCgSE69a9peTGWzdvZ0GN8AMEwvmxF73kHoCEKhBGxQZrxctjj6BxqFXneidrAPbkcexFL4UEIKpAQNh8DUEsdy+f67z0lF0h1R8pJAAJVSAgbKqyvH7KnyFjhR+WuwNhKar6I4UFIKpAGAWbKvrlo8sKQcWHDvb68csmPqcYTGHVHyksAAlVICB8Zy8UGz7U8mKvHyA8RVZ/pNAARBUIKIei2k/a6PCNU8z8AKGJjLlUZPVHCg1AQhUIKIe8Q1C20eHN26z48o3NvXvYzqCcmlHjeVOwwgMQVaDys3kDe/ghdpVGhgejrx5m80KsLPddn3spPAAJVSAMil1h/XX4qVryo27yoiNWjh+pG45a8Y/N7wkny5dP8sx/znjAiwCUJsH4jAEQpLzDT4YQ5CebLyq0OMsl+aSezPPE95V4EYAkjpqF9wPhhs3dm3nQ+eflA/VCwk8mC0FbNnNt+MJmq5oKULk0Per4eBOAWokwNscMSsfmDYz9Rfyhh9zxIxNm787ibyMKQW8n/y1PbCUE+WCTxRcVX49cwfB8qv6INwFI1tXWvJL8dMOgVHiDK5+s6rJjyp/AobbLDw5PmGf3FFeNQuphVoHhQQs+VX/EqwA0NxvdiOOYKlDJ2Ozh0wIrnu8tp6P7a4W25GC3AsQLVDnEUfyOT9Uf8SoAyfra2tnkpwWD0rB9AyMEFUehJ4Sh46KGspFW4qgAocvC+dl1rxjPeBeAVAUyUcxAdMnYvImxFL4YmvUJacWVQpBaYlwv+bJdGaQCFL6ij7zox7sAJOdm12lJ/JxBadi8ibHaJ38KE1rtFdpGlBqKfueFCaqGObIZOK9co/oTOh+OvOjHywAkbI5YLjaXwrPLbH4UeIpe5j4u9grK12Obmf/Bfc2osd94ytsA1NockWXxpfH5F/YOrKQClI8sOPiwzH1c+r2oEsQyefe2bLZ3vVABCptvy967eX1nY1l8edisABGA3MuGncv0tc6WyTMc7dajFvfqYgA6aN4te+/mdQBKB6KbtMJKwOaNjFaGW8/sCWvYeViaZzq6v85wtAP6mtoMzZ9SAQqWBp99rv6I97Xtc7PrtSx+ziBoV68Za3STJQS5oWAwsz/fYWdVB9+db5g8PZuEPIaj7WMFGNoWfB187hREc5+B6PDZLmVv92gH4jLIZmQUDPKk8HPk+JI5drppTnyQbwjKZpyYC7LH5s7gCj/MAIUpeWY/aQIQRABiILocbIagx5gDskYPrZMv5D/vc+VaGn6y6+LEB8WEIOaC7Nk+xQB01fk++NwpmOUdDESH74rFNhiD0Hao5aUDTfPe36c7/GQUgl4/lW8IkmzTRFpi47H5uSQABcn7wedOwQSg1jlhUYMdogP2yVW7S+EZYh1d2v7Jv+UlZy80zcE37/Y9Iy7960u5nwKuVljZVr7lSW1pm3t0MQAdnhAGnzsFtcFH8oU9aRiIDpbt4zB4UI3mia21VsuriJPc35sfrMKjt/+0QmRylc1C0RIbnu3riQpQaOIzIQw+dwpuh7OkCvScoRUWpItX7d7Q9mwNf4O+PKnNpZbXDw4Xc6SF2luzpwdvbxUVgoSW2PBszv8wAB2eOGoG16EJ7gnSKq+xN1CQdFOzWQViJdjgskHnIlpeciwJPqMMOOt6KSoEZS2xMuyE7ZqCos0KEOEnLHEUB9X6ygT5yWZvoHDZrAKpBcYb+uqyQecivlaa4/l2EmDenR99/kshSDNDH162N0M2KH3NdBYaGyeuzPbLiM15QTi3cH523SsmQMG+2ixFiwxEB8j2YCNv5/0pIBaxt09GVZtDby5ZCb2qHr54opH7MvkMGyeuzPbn8JOrVIBCEcqeP70E+/T4eHbDpTiOaYUF5qPLdm9sO2iDPUDzPRri1QO7qEHxfsvcx1XEXkEZhZ+ffo8B6W62218KuxcJQEEItfWVCfr1+fyPWmW3SwbB0APR5vJmld6ZBbovm/XREG9RtIzdRfjJKAT9yYn8l8ln9LVVEGIVYsr2tUb4CUawra9M8P2DpBX2nEFQPrI8y8FqsPsrvIqa9clkGxn22+PHFlUS1V4rYjhasuXy+ppXvS1m+wVk/jLzPyEIufWVCf7JQSssPLZvcJo/qPKAqk5v/3ffK26Fl9wsYEYnWyFW5Iohfc2rvFJMv2/bAZAKkP9Cb31lStHM/ru/eH3uN3f99/uSX24y8N4XN43Z9zt1s26NsWJt8s9ZXIoqd+NUu+ulAxNm/+/Ukq9lcVUIVWH+29kl89ef5f/117zImV82WwH4n00WE0JUfdPmkgoCmn2q0gnmtveU0md4nBWDyMXC+WPr9psSKM1rS1KO0zeEDRID4GKTM72JV6UKpAeOlmar3VX0ELiWpqetqGLDZxGnyXdTNaRKQ9Iuqj/vXyD8+K4Mra9MaT6pf3f+jRu/ufulO8ZETxkEIG69NdtShSqQgs9/81/WzasHa4VVOzpp3ufN/72RfN2NF/S91/LpHVM1q2dSDUuhVOGg7LsZu9hRXEG2ShW04ETN55PW1wemJEo3vbf76OIvkp+mDbymas1Pv7fG6oNKN86DHlQjXNCcj1bbFHGERbd03mfJ27CZHfT66COmcLoWNRRetmCua9F2pUtfI22aCV9FZ84dW1OK1lemdJN7nBUWBoUV26vBFKrUGiqTrK0ys7/uRfjRQ8rW5oauKHR887W75t35YltiojD2dhLGdF2WZbWYfh/POBi4p/3ltYU4Wird5sOla1anrbCX/88krf6BgddUSXja8uoZ3Zxv3Y4KGci1ScFHLQZ9fXwIPqKT3L/3PzeCaVH8xd/ErQFtHdJpa+B+VNozSHNqZRiU1iGxk//Y7jWp79Mbp4oPrOgtbprnz/9o/ZwpmdJuYLH7O4uzye/uqIHXXOxWHGorTEFHb9bP7Im8CT3ie8trNT61xDLaLFIzVKFdoy5aX6Kvx+sEID9F5ti52bUzpoRKu1xhavdr5xumqSrQRgNvaXh51z+1WwXSP1MneWuzvBDetDuHm/W1KHJJezeFnn/5bxtBD/PqGlD1qsil8t06K0IKmNcL2tBxGFq08N894+aRoT2kGH720sK5Y2u/YUqq1FuY7pq5PRnF9YuGEOQtF8PQGT20NVTp641Vq4VU8XnCw52s9VD+8QeN0u3JotaiKhg+VYNE16q+1mc9nYNRYNOGjy4qk1R/vHUjjhrby7DhYT+l38N998yXMyauvWXgLVdldUl3C25402rI2lyqUPl6lpRmVF4/tVTaJdyqurx0oO7lQbq6TlV186k9pq/Tvzrsbgj/m6+Vc+Vm8KLm8+dm18+aEqvEITa7Zu6cjOLooIGXXFaBpOilyHpwPL5V1Qc/H7qd1CrSw9f1WV4+cBm8bdD1qpVRauUW9f1QWNcKRFeo/vgpuUud/OWxtaU/Z7MSAWh6Jt54J76rVtikgZfyeBjlOXiq0PONnekRCVs2G6+GmnvRKhxVfap2nIiPA9K96NrVrtsXr5pcwlBeVTKqP15aWBet2T43G5V+O5nKHGPMPJDfXFeBMq5aDAo426dMaxdinY7ta3urlypVffrxvRrUSdfvfCsMxdbblHmuRKT646XSz/10qkwAEuaB/KZVMUf35/cQ0sMjPT6h2aqADPIw0UNBYU1VnU3JW/Jjm6NW4AlxkzvN+syerl7Vp59QqkGdFFpVFbpyrdk6BuTqteErRFva17CqlXm1aPV5O3Kc6o93KjD306lSAUjYH8hvRR/wqRtyryXJmx5Jq1S+t7IGcbO1LLzRqvrgQSFVg3pRANI1rNWPup71c2coUtDb8FDUCnq6rou4po+dLt8Kw+CVeL+ffioXgGT30UW1wrYZeEdvo9ocEW6o2qO2A2/eKwuxGhQKVX90VAm8ov1+/ompmNKdBTaIpMepA90WDLyjNtSJD5gLsE0PHW02923aDgPJzhNLw6KBRUc48NQ3C8kz8UlTQZWsAMmumdvTUVz/hYGXim6FlUXW7npvPq70kPM4VA1SW2zvzkq+L1qltisvOH5Ziha3fzy74ZKpoEo/YRiK9pceOieTVpjrVWFlRrvLLtpi42HVl3/iKH71/Oy6V0xFVf4Vm6Fof2llyttHmAcaloLPn33QYHWXI74ep+EztREPvblEFdInFRx67lbaw1AH1T409ankl5sMvJKtZLF9WGpZ6SHzRvKG/W/+vBHE4Zqh0pzae+0VTFs26/BagxVkS97/35uEH18klY9L546t3W8qjiELc2+TRM0DTRp4J/Rlya6V9eDSEDAftDJdmwo/ZT1XLlCtoeeqbHa4EgJQ29dmbm2biNcqBLFTtIcIQQ9iwNkfBKHetPJQR3jAG5Xa6Xk1BKAOSSXoUFIJ+omBlwhBKbUUzl4g+PiIIJRSOH/xBLuMeyeK95+bXXfGoIUA1GXXzJ1Xojj6voGXqhyCstPBtZoGfqtyEKLt5aeqr/jqhQDUAyvD/Pb41si8fKA6S+RZ1RWuLAhtn6pVYtUYZ3x5ihVfPRGA+th9dFHzQNMGXir7nizZfM+Hl2PepEtA520puJd5+bwqk8dON2nL+mfu3LG1ldzpeTUEoD6mZ+KNd+K7OjNs0sBbZWuJqcozf7lpfn6B+Z6y0v5WT+8sT3uMVYheW1gXrdk+NxvdMHgAAWgFLI8PQ+jzFmoXnG3N9sS0DipE163CUMhVIao+XmO5+yoIQKtohyBVglge77nsYRLCGWIKOh9dTqs9zPZgy+bIPLsnnFkh5tK8x3L3ARCABsAeQWHxtcWgh8UnV5vJj5gHB/rS9btna631s4KRTwg+YajyAafDIAANiD2CwpO1GBSEiqgKaXhZD4q/TELPpauGNgGGll3DT2yNWsduFFEdyoI7+06FIY7Mc+dn1540WBUBaAicHh8uPUimNpvWm7Xeqm2/WaulpQfFp9fSVVtXrxF4YF927T62Wddz5CTYa6j5YrtSqTYtc2nhYK+f4RCAhsRGieWhB8mm5I1aDxMtU9avNzx0/yOhfYb0MMhcbz8I9EDQD/01BR0eECiSruMND6U/f/WR+9dxVi1S+O+k6/ZWEs510LCuXf2s4K5fcz2Hi/AzPALQCAhBAABfEH5GQwAaEbtFAwAKxy7PIyMAjSGpBJ1MKkEHDQAAOUsqP+8klZ9DBiMhAI2JEAQAyBvhZ3wEIAs4NwwAkJ/ozLlja/YbjKUch9EUbF3UuhDZdAoA4FRStbi0Lpp4zmBsVIAsaR+eqkrQNgMAgGUKP2ujNU9yuKkdBCCLCEEAABcIP/YRgCwjBAEAbCL8uEEAcoAQBACwgfDjDkPQDuhCXZdcsMbEZwwAAKOZI/y4QwXIMfYJAgAMi31+3CMA5YAQBAAYFOEnH7TActC6kGNzzAAAsJLIHCP85IMAlJNzP1o7oxN7DQAAPegZwcGm+aEFlrOkHfZK0g77vgEAoE3hJ6n8vGKQGwJQAQhBAIB7oubz52bXzxrkigBUkF0ztw9Fcf0nBgBQVTfiyDx/fnbtSYPcEYAK9LWZW9sm4rXaMHGjAQBUyY2laPHJj2c3cJB2QQhABUsqQZNJJUghaNIAAKpgIY4aT56ffWjBoDAEIA8QggCgMgg/nmAZvAf0QVgXrdme/HLOAADKak73esKPH6gAeWb3dxZnk+/KUQMAKI/IHGOPH79QAfIMGyYCQLmwwaGfqAB5avfMnX3Jp0bL5FkhBgBhYpm7xwhAHmM4GgCCtbAULe5nmbu/aIF5TINyWi2Q/JIPEAAEIqksXNK9m/DjNypAgWA4GgACEJlj68yaV+ZmoxsGXiMABYQzxADAY5zpFRQCUGDax2ecNswFAYAvNK7w3PnZh+YMgkEAChDD0QDgB837NKPGfjY3DA8BKGDMBQFAgdjcMGisAguYNk1Uzzn5JcN2AJCfG+m8D+EnZFSASoCWGADkhsNMS4IKUAlkh6nGcfyOAQA4EUfxOxxmWh5UgEpm98yXMyauaak8R2gAgB1qeb3KEvdyIQCVEC0xALCGlldJEYBKjFViADAGdnUuNQJQySXVoENJNUgtsUkDABhE0vKKnzs3u+6MQWkRgCogbYnV3kq+3fsMAGAlc+1dnRcMSo0AVCHtAem3DACgG4POFUMAqhgGpAFgOY6zqCYCUEVxsjwAtPb2efX87LpXDCqHAFRhVIMAVJWqPnejxec+nt1wyaCSCECgGgSgUqj6QAhAaKEaBKAC5paixeep+kAIQFiGahCAEmKFFx5AAMID0mrQxFtJoZh9gwCEjn190BMBCH2xizSAgN2Im+b583+69qQBeqgZoI/kjemkDgGM4/gdAwCh0Ble0Zp/QvjBSqgAYSAMSQMIgNpdryYvb3MGWAUBCEOhLQbAQww5Y2gEIAxN1SDTrL0SRdFBAwBFUrvLrHllbja6YYAhEIAwsnZb7HTyy20GAPJFuwtjIQBhbLTFAORowUTx8+dm150xwBgIQLCmvYmi2mKTBgDsuhFH8bH1Zu0s7S7YQACCVcwHAbCOOR84QACCEwQhAOOLzsTR0vPs4gwXCEBwqj0o/ZPkl9MGAAbDgDOcIwAhF0kQmk6C0FuGFWMA+iP4IDcEIOSKFWMAeiD4IHcEIBSCIATAEHxQIAIQCkUQAiqJ4IPCEYDghXYQ0oqxaQOgrAg+8AYBCF5pD0urIjRtAJQFwQfeIQDBS+wjBJRBfCaOmscIPvARAQhe6whCv5f84UYDwHetIyuMaZ5kA0P4jACEILSCUNIWY2Aa8BZndSEoBCAEh4FpwCtzJgk+nM6O0BCAEKyvzdzaVm+umWFOCMjdDRObd+Ja4wzzPQgVAQjBoz0G5GYhaXO9Q5sLZUAAQqloGb1p1g5RFQKsYhk7SocAhFKiKgSMJ3k4XGpG8c+o9qCsCEAovY6qEEvpgZUx24PKIAChUlhBBvSkFtc76836M1R7UBUEIFRSR4uMMISqmms2mz97qL7uJKEHVUQAQuUpDMWNaF+tVlMY2maA8koqPfE8uzQDBCBgGcIQSojQA/RAAAL66AhDGp6eNkA4CD3AKghAwACYGYLnNMNziZkeYHAEIGBI0zPxxjtmcTpumn1RFO0x7DOEYtxbsr7erL9E6AGGQwACxqQzyWqNiWlaZXDsXpWnWV+a+3h2wyUDYGQEIMAybbwYNev7kk+XqkMMUmMcc0mV56+o8gD2EYAAh7J2mWlG0wQiDOBSEnjmTS2eW2fWzhF4AHcIQECOFIi+NF9uM83adHt+SIGI4zmqqdXSosIDFIMABBTs/gyRAlE0aagSldVCcsOdazSbf8UMD1A8AhDgmaxKFDeibYSiYN0LO1E9vkR1B/APAQgIwLJQFNUmk0/ubxvaZz6418Zqxs0FVXZ+w/zGAmEH8B8BCAhYn2A0adibyLYFY+Ik6ESfKejU6tFCbJqX2GUZCBcBCCgpzRZNmDWTzUY82RGOVDGaNFSOut1IfzwYcpL21Q0qOkD5EICAClLl6Nfm15N1U08DUbOWhKTot+L7laNJU54q0oJJw81CZKIbzTj+zNSaya9rN5bM3QVaVkA1EYAA9NVusWVVI3Pv5yQw6SeFJv0cmzj5e6KsqrTRPFhhmjTDWej643aFpvVvu6Eg0/rPUJhp/Yc0s79/oWEaN5Jgd4PKDYCV/P8FhfDWvACi2wAAAABJRU5ErkJggg==;" vertex="1" parent="1">
          <mxGeometry x="-564" y="456" width="30" height="30" as="geometry" />
        </mxCell>
        <mxCell id="tJPOTWM7rPbdsHeLChuB-27" value="" style="shape=image;verticalLabelPosition=bottom;labelBackgroundColor=default;verticalAlign=top;aspect=fixed;imageAspect=0;image=data:image/webp,UklGRg5dAABXRUJQVlA4TAJdAAAvP8ZjEGpR27YN4/j/r1OmnikiFLltpLRzYlh4BP6HbB1Ek5QCGmV+TCG0zB4WIb1y2i+ywzU/jRpenW379sT/v2V5f/6u53vFPovxvu/efQ3v/38XosnM0J7XeZ3XfZP7ud95X2oQk1RicAhYAFI5yAoQowH3CAQCg8AjEbAEqAYEuBmBHkwdAhaAIKcCHAj0sADvP5A8Fo9EgKkliAbEkCBAoHkEEjHzWQEkCHAg0GBwCEiwJHzcJCAQgxhVQU1JxTSBBDsKg0SAwyEQgwAHAg0CBAkCksqay5EMOAyOBAxJBRWTkCrwCAQCloAhFSCKQz5uEFM3hoSFoAEcBg0CVEGMB4+ABEvIRw0SAQ47CgR1JA0r0CArmAUgyKEJKGzbtuH/F2e1VhRJUmPlAsEAxRtpOG8J2P8vcfL8J+DZzHXHf3qTswADVtzZ3d3duZ7d3d3d3d2igN0yCyzA4M64w1hRgGy7btucm7T5WArt2KRIAA8PD3jMjBf//9c77v9ve8N0mCmHmTHpa5h0aQvdZC+XR56v1zl5nizgFdnYchs7duysoQx21lA7lZFl0NlCGdbAZHEXY2Pru4TIY6PHjqqPzRYyNpe62Kwhtgwye4g8trZrYGa0vXQBsWVYQ2wl74KZuwpmxn0wc+3YMjPZroC5s4CiZpK8CGZuY7sGfjPDDmrf/H6XNlBH9u0QtG0b/oyfZFcltpHkSJI721WVWXr1AdKF8+c9f1mQJJu2Zdu2bd/7bNu2bdvGl23btn1tm8fnrILEtpEjydpkoButzbuX44dutm2rHKeWPWeYRzjnDKOZ7dz9l/HNd/5z5pcKmMspMzPUwCDsxGwvQyfG0A04UqrQbKsGs63QLsIZw7Sg2DUo3B4cbmilqmFSZXspnRqcYgPqQeGkKmb7UGqIJlUNkyqdcHpQqNSpajDbasjUxaYKTUsFOGNmrGIZ0u2DzPaUYmZHLoFThpBA0qZ/5m+fxEiSFEnOq9KVWH18z/yvxMuCJNm0Ldu2bdu2bd9n27Zt236ftm3bPlbBQSTJkTRlFQx0WK/F3gpH/qsP/VuJBID+Ff5/T1lTJQC/N4gxIA04g9YGPTWG62T4McyPHn608iPNj9p/S4Czlz8R/asfE3X264g6LzU0DZ9GiVI6RTo/NT5r5OtIOnv9mKHT24DVCTQ1AkD+RJ3GGrM0Dmk81fmjAtcwjXMaC3X6/ImqjlzeIMSPoQ10PAomDVPntM6E+L+hjBmRD1u8xmSdixpeBZbOizP+0A5b/pIwnfE6N72KSRr/I3QWGzQNADMV/kQVnVydGzp/Fas03utM+xsqO2eZ4seaJIWhuKs6Xf+FCiaBH9U26DxWONL47cf8Fc5Y/EnQ2Jyl0KTxT+eszuA/UUn8Y2xJnecKUQ/9WPrPlHfAVvHSma5RoHDVTGe7TqrIBFDKoE09r0KWzrs5Tlf8qa7zQHHQAo2cfIQKikGkzlSdj4qDdIp7RjpZCQA0TFJ8lNzDgBEQnVpXdQoVJ7X1I97B+mYauxVHHf/VIxardM4ojtIxDEinKv9IuQaKr8750S9CnNMzP1rq8Iqv4vxxOVO5pyMp7tL59MqgtBhoNNN5qLgryY+OTlTyges8UxSk80FjoI8+OvU0rigKyjJwOk+J0bmgiKjte8QZ20MRkYaZ6jhFZ7WiI427fjSibAtMZ32yIqMFOQ5TdEYpUloTQrWVoh9jdH4oStK4GuEoZVUiLVSWzqJsiuik3FDEVNJJSprGK0VOGtrH9B41XJFTlkZNBykPFEXpXP8TNWh1ZfjmowhK436MY5QTiYx47+i81pDPtdX55sY3pqKxLI8Ob2DXuI1de1njms6+ng1f6aT7kblkusb5FmzbpzPBMWou5QbL2+rcOTMoNb8OqmL+mnB/6GePbusYClMaik5DKuX1GtkPMa/XaezyY2yzjMA3euOzlVkMzRcHO0TRGanA6HzxY5JBEGQr8xE7WmcP5m9Nz6aAgQOvPf5DjeN+jDYgYBuuE6GxIB28pRoHHKKPGQbulKphGoN1+U4aTxSWJhg04d+eckk41q/oHPWjex7DxmvEadwCG5Fv6QjlDwWkDOs+XSdRZwqanRWdTdGcO2FsonCkI2xiPcHy6cyFbm8xJyiRtYF4sjGK+w/HKxTV9KMxT3T6pisMNH5NQzl9WQLd5hEOUF4pGDOQ6mxFt6uG09Vg8wheRF9VGLrgxxCs6mVLgDxxgNprBP5/AWJ5uwGH01nJbgPIB3+SNBSUtiMGnYIlmlYCNzzE8YlGWwVCx8JtEm5AXvdiXNrS6MWjtvCyRIy2kd9ITOVpyDB6Oj7ROAFDZxC6MXcUT4OG52HjTzBG9yKz0H046QgzGtwlzenp4CLs5OI4h803gFcRWsW3QPZc1ICpiVDe4kcHia+esO1v7fBEJw/W2L2R5CEDao1iVnhVTHRGhCtWNPSzMVzqAcAaXB53eDoK1ALWWF1y0j4El7V0NoahVWXW2cHeb/rpTMlHBgMUSIMdnejUhdlb9CeK30HQj/46XxWrcrcgXYS7oVjZdoxfJbcJIGo5OvkUxEjJURnTmKuALY1HcetEx8NsiqWD5KgDsOJ/Rye7QTSSXGVA6YjMxuQ1xrHzCWt14aymmXxd69IwQcVMoxycrHBDqMi9JKe/xnfWH9RJYbyyNY25nSL33rBg9re6OzjZoyCMJnAw1DnM7BfKbCbnt26zVh3bwL+rwhAQOsccnFwHValaLwlIpxvrL05gOHc51pb9VwloL2joC2nOzWctBKGNJKFRrL9YGGzuJH454692iiFrpnKOY5MQBeGkJKKZoYpJiTdhfJilmFhwT9LQbC+Eho5NnoEqQeXQqRLAag94azAAP7LcigmdrXScgGjiJP0NnVWgloWULsoNYTyNmZoS5GZ+zzjSg4mSjs6AWsM4SVudnKHljpDOG8Y/cVTghHVTTETsl4SYoyC64NAkACycfBF29kjFpPZjArWo+LlionkMLS+JCjtHbf/uAhWoAwe1SbbfdA3tu0AK09ksbRUmNxIFnVMQLjo0KQ3hBsGqZRqyYlGha29nLpvbv23LS2osg7DOoclzCK0kPRlUnKpYVPfS27pNHKpY6JEtyaHTAsIwhyY6RyDcJNk4spOXyYxjayk7XmZqoFKDpLExBVG2M5MBEPyoL0lKp3khxSBvfwNGw810YY3oEKpqQjjhzETDCyFD0pQBZPKy1K3xl6mr9sGSJlMhfOjMdNlBASglqSpT46DioopkYxbXFILGTEcm10BtCQlbiPRjHg9aRUiq9Dc/B+B1liguihvfpEEdjeXL5s8sGu2UYSKEq5KwRmdh460h6cofF6jvXNOBs7ybe+q0v+fQ8ff9jKSsooVw0bF02knCJIDCyWQ6EJC72kKNLqOcLrwP8neRuJX68ZhomP4k0e5uJQnSdZXpQETJOjtbOlvQWAthkaStUToCHhOoe1MNaoufbTbQ0e19ThZ6QChEfoRVPbC4sVESpyKEY1aFUjqPWkc4VigBgX58doM11iFFpCFaxCP2NetCqZqNnSrMg5Aj6etHDHqECXnF8D0rQ6n7ec4UakOsXHmECPCJlxmdbT4xD543rQ3V3oB0pFAKQGcphGZmMXLRIwXgEwhDLA6V9IcThWYANFQphr6py4TOHGFbbG6wOpSamuM8AeLf7gIpiDp4GZgmxeBX0PHS+lDjZztNCABRAAYIQlQ/JkPxHcVgH2j4hRaI0riX6TAhD2S2UQzSKjKOZ2qMGFHWgrDYClE6J30FlGQ8BinVXg/zKChWAULg+1kxakFXERgBGlaoJaKmFVAyW4F0wlZno6juK7RSzNIRUwSgI8hwvDWiajhKWAGy0iQCKP2PfBFDnzewQzhqkbg1OjtJuAcyWCJEjGhQpLGFPmNArveaIBWnMelwkRJlNPRwFHP8CQ4SooT85bVehaMz5DGAIGMtJkhplI9n36fstvmfOkhIATltTR4Dpq7CUlUBf7LSDEGbTIvihxj7RNzuHCEAFEI/6hzrjNjj0j7ibAeNBtE6kDJm4l62P8o5QgAAFKoy4nRtgeqEgoGDNrXN+YlK43r6paEpBq0qsMWlZTclcpZClYY6W7R2J60sBjmqAQOznCNACkGG0j7NaqOQtTuFMhrJoFhxWA3SUytZgfWZY4R7kBEakOaMQleRYMIYcBAWmiLYOumGx6jRMQJojM4+wpxkiPG+wVSG0eoQpjqERxaE1JkAf5JYpwg6IgTC3q4ZUHXBNMmTOivg357RpTWETlaEfKqgauwUoYFI4w+cXRMefLKuUgavhnfW10WkSbJoZ0kEgOqIUK46RVgJwR+aKmHwZ78z922bVRFuRH4LVTqBRl5oSchrUEr5HCJMh/CCKjvh3i3m17okGj6uhL0pRNkK4VdrQtZTQP3mEOEBhCtE+RJ+XSwQZ68mTwBvWjdxbNdfsygauYF87RChFoQDNBnnxTBiHlIK/G0DTdpA2G5RSKijkVUcIuwRpapu+SMKypDAt87AGQ4+uF0iyecQtlgVVxRQ+cCdIewTxHrh+vYKysWgQ6AF1ZFUQfy2zrMqMhKBnHCGcAgU8ziK3azDA1FWLBjNo9IyeQRJB40bwaqQMUCucAuURM5cA6KjAVyR5yFO9tzvbmUEE8eTOerWd2MzPC4eMkD+dRLkewVFR0oB7EsqgzdxtRA9drW3Lj4FchednHEHLt7WUMIDq7CXW/nHZ4eoPd36QSXv15ulIS/Nenvj/FI6b5vcXvnR2hXUCG707MfKucvzq86QfG+AzuVuFz/9LMNFg6wrwsv/0fCBhYDG5BQGn4zhhuQwIEA9BlsX8dAAAKMSvahnFWj1seU/v+pI5WhyqH+rc26wu3V12l2m0hF/sAHbsB60DNDb5KN9kRi91cwPXHdhPJgvnu62NgcFKNAtFQ6lWSNgxyQvoSTuE6DAaaR1cYz3qWTMr6uTWCd7WmfCGAI2dXQ2sI+oTsP7dBeFvmYe3WH1TPjzTgaQlW8VF3W2tZkBoTY11yCGgitzFYRuZ0gcdDuXTyHGJtALVusiGshjtD54ty5VCHKX4NvmM6X7boWjJt0j+b53xdsqDCVW7uhiYSWESsRKR7fhzzhndXATlYgAUPJmU/6wLiTwzLME0o8WJiks9SsYzIuQXkcUnjTcPS/wK9FZEqrQVO+aS4Wm5GdicImC0sPDsKk1wJs6kPywdTpYGECLmb+j7Ox1ViYpTFXjY4olc2Ai9uAX7sbwqay2JE6hakZ9Fwqjqbt8ZeBMhFIlk2lj4RHbX0QKUFXmPhbGZl4N3z/T0NA9opu+Hp9BGorCV5PtPD7723JwT7irHQ+dOkEzKDFbQwd/JU+RTITpiFC6zKUEaH+5xcIoA+Nz9s+ZHlxWs8Mg7DK5DxRYtGJHG71T8dCdeFcJk0GW2ik1WATPW04Ws98hk+6Ae3sl9DZhXsju0GdhAEveizC3aL2juCh5EyqLOite2nsLlS3VFB95T/tcI3jqkrYfckZB6Y8QzT/w9f7npNv7z5PWhScZRivW2t4absVLSzB7nkxU/KShYp4Bd7yjuOn4FpcIsgzlp/rGDaUXSlhlwFf26XQNshYUeF4LI4PHa4D6Gj6eA1NA+2NHexVPvdyI174oTnFUlz4uEaYS7ut8S6gConMJ57L5dPCuJIEKX4FchLAwUt8Eu3pf62TFUz8jhTB+vlvxlYa8Aok9WZwX5oMB4QrhEV3/RyLAHeW2yECq6Ql+glMxRDgM8vPXwtgH5CZTXOJ5H1N0+Bycfsy4qxqOfxnLFG/dmeICoTTdoYdsBXtDGoJWoeAydLsf0I33Q7yF8TUQjQZM8zLCXb/nslNJEdAMDJORixV/LYh1fWDAgmp/EinZ4F9yMicZuuH1aXAZwiQLAzjn3u4oODcVunicOY8KVRTUnZ2qNNbFQJTLg2zQNZJRFLhVCEpTzE0vDjbAtYXoeK/SpXWRDzwRxjyGPirrkhhb1T72TotJ0DmDuW5fXUVC63yuDuR4mq6fhP2ugJTAbdxRBHzBJIYAg0AvcC2MHdDQdMCLy/ayWTWs+NGBk3NSE3ZdKr2sMlvNYg2d0a/GiYwGfnX4XjoTzn9cfW3fL88Mb8F1CKKR1RQzy6vUa1PiXGfm6suvXB4Ug6CTTgCN5QrI0o3IL9jBRjWa0nxkZQvjOpDzHAbFmL66cRAF8jH+uHoe5DS0kdnLGaiSdsgXxAW2tYdZzl68BhTHN1q+2KCJAcy/eprPH7pGg3gW0gM/z752MXC9C+P6RfE0tbk5Q3IAHslu6I6mKPrYDqC1Pt3+uPgD6l6xlnVxyA3kBNiOjhdMs/ezYT5BMPygHQ+7aomLW8KMq9SqqcDSEXnVDNDw1qketAGFiJn9GDazjZ3e7yEZt0DOcefeMAXkUyrzoa4mRFMMl9M31kU3BSM0AnqqORR8inF4I7h+t046+KkfMphXvJcELuH4Dt5jCMMpTG2WYZkWYuCDe9BrqcfhG1rfxUEIaC+VzZseCsjt4PwuVOTDlpcRu3HuhTewb2+0y4CdU3ZQ9bWL6u+re82Audzy0NhbCZO6rs8M87HNSLRS93kTmQhhtmVxyI1re+AquOPaRkz9sd+GbquOhF0fI/FbyaJLndEHdxrDEJ7BCSwvUD5JAn/UI10b+EBfrXW59ykI5C/w/bAmd96dwllIjeLcSaEHqxyv1yYdulkF6U2WhY4hrQrfGgXEgMKt7D2LsRQ+4l3swbmdg07jGGt/59DTmLZw9igw5fLYbHSdAx8eXRvIJuS8ZNhfWAmg5ZP4UhVCA8tiILjVOK6HQSvTODUvn4o44Cylkkawh0nloYLpEJhqDJW4GJVSAmo/Jcy1wUIiIzAPAEwutfbssoU9ZrTXKVBCKOnG7fuPauwZVD6NC9NAdcmsir4KypfQMV0rGNMxGpjXgOE9hunAd3/Jrj1AloEthioonRBaYUF7gL/i2mAPhKGoxI640nDxkwXhSlS5NbRZdXRm939xIYL3vEXOtCgMOPBnQ+JszCL+Uzh/oz8rhTaTPJ50jEYwEr25MG5AqQClqURQzgAYDVwbGBCKUyl2dKO1r3r9UE3Dq8xC3qHHh5/eZOCc4sMgRaMAQnlrYn64gtJKwpibDGuBOEmisH48rH5uBuyqKqxO8ii0uRZDixWwAQV+BFI8C2AX6LxbXBoEF8b2YcEzpX6N4U003MqslKwht/nx5PYAMPQ9YLNgKyK7G0NTvEl4c+CjstCccfCHDldYbXmqK34m+ysgTjh+ZSDnsE6NawB743JpINdB+B7clcg3X76rI6UrM1Ry2x6nr8Af2hB0cUhaEN+0Vwq5+CHvCF8zywNBDItAMjkQHosXaU2sGopTkoHMQaspB+uxoIVrgwcoVqg27iv+zqw4ZbZKnre6ZKVDAaAohQRbLYeIxjeYgpgciXhcOJKDxyTY9aaJSG+5Bs0UKIyPEf083snVErZSJ1wavAcq2M0O9HJ8weclNNzKzBW+++Kz8h5Wo/GVrIVcA7ZTTcWk1tDLpy8596IuL8KamCPVUi+ON9QHrApsUenAur+xEk+zYH/jLg0mKYgGvb049sWSYpeVNehI76/XbmR5/bzFKsiecm/c6XXM9tJ7exDLxZeihvkyIRyChgpheBuA9nO1A70Vb5w+ZyUiBUEsdGkgX4Ka+uaemD/8gltZjO4UqVU2SnYHbZA0S5a2YNPlLKSFBAbucHaD4t5+dSRowxMkKS0GURl0ZAQGEzUNE99QUDi+XBs8BXVvm6SsSu55oKP0anOCqurCTWjdBjEGl4mwYhFanIYt/w3I9T+gja5p3Nu1xgUAXBp0V5YvnXQr5WO4pcN0CJslLve85EMxOx/WohCt8f4JMIjmx265NEi1fkpZKANxVx9KJwL9u5+jRVWk/5SEMUDiEpUMYa1LA6mhWz3xEdbJwmA4aSAMCEZwjhjurgKyDWivEd1ydRpA/tAuDWI+t3rWSMtkiWTQz6AuOvBnZQz0nq4VENjvuGMlAbku+FsCGl+PU1bPw26t71kiyd2ZjOGEUlgPZmNhg0URjwQFYoF0WVG+xoxEVWCgxBlfhVgezaqjG+8sRyGKqOpz8fgMxkjXFJ4uj1qIeIqxtEW1zbtPlei97Yci1+sMP/xLuYHNfyp5+qfmA8v9cnhnnW5tjj5e87kOryP+fuNgZwFrLrf/2oC0NI6Xl0ycBfEJhVmQUdXE430YxV1QBAAM2IFDhTib0NCrnWpw/fDA019WPVn/Wscxf0sAcgF5xL0xHX/75sroV8seTb/6RYkBS72Kvl5+dMKqKFTaI9n4dxDfkJhEag1NPOoAgxzkasLjT1LPmkoI/ULOGnvwD0oEjW/e0opYzd6RzDYQVb9B12aQ0TMCn2vRczuu+vXD83c/+kVHwOE47OVTimuJYz9qKEoQDQgjWMdAlArOA2pMthjWDEIZWhtZ5aGTN/e7a9U/vlmr6bQ6X8wYMCGO+Vy3QdAcgn0eSRcSGWdnKWrScO9t080tzprerQ9E558fW36ucoRaL4prnuVZBukLcSokxNFlLtqp+OB93Ze9s60a5NMHm+BkECtdRgSAXFpNqTA861yx74vvaBklZeRLBeO0SOGTq/CWjeJGn73SWP7kDqVqUiOLeqyApQeisMKQQheUqhAxI4YcDaRjAu5MBs7Vi4uI/R91JvPYeatLXgm0O6hHCsa5ADCa5CxVrH6DRHUZvbUBmSoJ7b/8WwLMnyNYDc9DCPOCveZ6fpmGQoZGwBjPuYIIrl7PS+NcB9SR4C5gyxVvF0lUV6DVmoLsSTy7T/dHjydQMHufdP830//JYKwokhPmJGPNvkrr1JsihT9JML5y/TCqFoGi+vE93uqCFrbvqaZg9KTspzziKJjzRvQtpyPxv1JYrV2UuZNlAJFG9k+Y8yzMPfNmNQxyFAUOt9rVw4jKvJ3COni94Ysc9KhWjU+hy2RoEfN7DL3Inrj59Bznc764RwmmQdrfEsCkXlzDnjmOMJ0YroA+9SpFkEswrrh2GFdR8VTnozoTyrIGw+JYEpCipEeKCGQYo6/Z2c1qrNZQuVqsqmNAmWG/ubGFeS6L2w6EOQOfOtelSpHkCgyDJi4cIp5VUzx155hEEDSuP4dpt7qEHogfYVw9/PWc4qh11T3m1+/6p1BKoPChcCT8oBRR9sDo47IhL41783YDAoHPFAwNbT3xbrYeAs9NMD5IEZxbV8z7ONjsyO7MMd41m0SjcWFFltbAaXpx0ZDXCXWVTHAbaE7KISBrJXE1hJ6Z4LR65D1Y/o+DTc7vk+LgAy6GL6knBaOqW9GlA4xLLhkih4QqAqrGK7Im1yV1YjYrmCayM1zxV9uPg02NsAlK8ar3tEgszroVJXAqIDR2wZDbrjaPht481jNqahLQRbRRkrwMyGQeD5EyjIZxkLYTg83M76y+UDQ0BPex9gnFt25FGQMnjE9cLsT0n8Cl26aZPPwebCDAXIEgj072EQ93PvyYef7xQ4WtKi9MDN886IdqGafZQbjQloQAXX50R//uLXSoSsWpOzWWn371AQp9YHRytWDQZB56u4pujd+yD5IH2oH341LbdJvASeagUWDgYOQqiFQpUxa9g36SWO+1eflN2gFsu3EFu9vuMIie4CUgWElJGr+3QptWA5f98WyRAddySrQHud+R7cDXM64VUrGrZC795UX+rdmnKuxZbEmZANxHzpVCKN6t8HtpjQTtMQfk3xHLVuRWKYmLV5iW373g9cH/CzNTYKTQZKpiITm3+UwDdlLQ9bORyQHWYnelEPU8XGGiYyz0x+VjrXPZkEM8YOZLQbSYw0MqsV4X3PXRS4Wp9CVhJsUL8BGBuQAtxgsz+U6SHSwGXrrVzyPR72E8iKOuEzyjUVsThy404IK6MhIdjjyN9WOBR8jdwaIQfRn/IT1gPw/KaOzz2qhGgV+YlN/v4HHe/sy8ucNgY8OlSN5QMF3uvlXZgwRtQQx1mTB4hsJTeJG1ETiroU+NYeAJsJT1hFgL9hJ3ACF5OhbK8Ep8Bk3uY1oxr7PClBihoPqNx/W2ZIqUBH9U7sdKSYXbCqQVrhFi7iYpNHLnAzvU2ARiCNtoRcReewYeHR77IR+jGRTPe9Ybz6CgjufbAIAZjTukB3iqO3ls7USKtIf6HVlfSjq0glHdJYIB2Q+vsKUp3IOcjCzM2IakAK+ALM/hSTt7W+P/p1tLRH5IMcyTurnv4/1JOsJ2EyIE7EjYexwqYn9CkJbQeofXJE+QbCKUdIGQ1jRZIVFiZgAocjsSdwJucNyqSp405DaqvvdpHe6/duL44QJ9HAgIhUq5LOeQHW5jNY9I+jLYfMY91QpcThTBxiVBuo45A6xEh7dSkA7AQKq48IXrg5ABWC1MLh7iEG7RIdAiHuBjcj1cyan3bi/qvX3RYE/fRDGldjaQTfjDRbjwAKub4YpTTIe5SYpHhbwctxhTCK4hw2gu0WgO9PsE56kuuzwYjRTm1XNn2X0Z6ZoIsr0l0GPq7u1Tj22ty0rqe52WKKY8wrNv797CbGel/zmkFwObTGfchQPBLYyy0X2O82aQ4ztgr2iReFRGGnfIeNg799q1QdRKQknd1xvtC3Ec0cfU9jq79ls+rMP1fNv7NMM7ZQawStst2BE5mc8SQQgAjOutUPTzPQHh04HVGfycB9shRlW9WhKP40j0IBHwZgPnIoAMKBubEeMVAt42WH33fIsV/gpfGehjuJNT2+ub2iy13lCHzajHhmIV7ZioFNYo2IrzK5duOTxLIUhDPWEy44b+FGyYcyMTM4X4jYYwxmDGSh6JL4HnfDG4pCSBDvr2NWcx9qtJi1PxAlrpBTUpCwBDi6hnf8lfdb3F1mJFTZaab6npSurcbRCBh/yGdVloEpqlKJS590iqKhycOrA6zMRkIfxFHMx5/gsNoEIihEJPOPVBG97BrsbXS7Erazqq2wklcIJ8lamhgx9DQDXZizXeMOCANRnx53XT+T9ERwR8BEZwHtLA5HIYP3g3HzZTiVtAcSiJBg7sGVRShahxHRY+fs7pBaEaSKzfOIpLOdjpmU3N+icIJgaf7pdvF8ef1kNqveyFT/jw/8lDUKm5p28NR1mdAfjzOSsD8v24P2QmThjGb0pMbeyFYF1+836x4NWB1RfoHkVOpYYOz3lwIzoP0SgH/PKbxHsc3V2kPc0xDZm9vKXOWPQD4UOMr/lJ8cimZYluafX2a0njhHh7mGBo6w0LtvWaBQn6BrE/g3BPeR0W5IX0ONBHM1biaqPOhkR2C8qXxYFnP+oGTuzpeXOH4BK2QMcAqBn7qVVJzFFVofENcAO/R+13ARbsAXuaa+zeyq5rKfG1EmOp9hwGWoHMgUPsnw7h7CH2aYUztXdzJJzWOIZ44pi744V7SkOMs6MnEl0GxBfstoCTTQTfPChNWK5tToY1fG3FvVpXVh57wftCPKbjEXYZ+D/MVxWwun4PEJljo/KCubVJCz7uM3wD4lxQXQN50R9DbH3iXj+vu7c1jZE4e1csw/mxrzn/u+9i2TsYN4NR3M0toYhEqswf117mEq4PzQP5mYJqInazjnDci4ER7HPoM4tr1k+d8OIhO0GDAe9D4zLQ/VNELtmnXEpSbBwZwslxah/MgvgIBE+zItgeE+eOD9jfiD1sMGacWFoTeE2A5soppggwxNJ3xgvzlIXs42ovxaffEE/rYYpN7iHiwK8Dq/Esn4wnuE81j0EThKtibeB1y5DCHodIDtR08wE0HsPMgU56C6Q29o1tUyplKTZ2xkoGcbDgN43dxQNvxyCvlQXT8FNX/fSPOvuwp/ERYO75aeLxvWY0P3M+J7y/V8/k8sw2wnpJTsr+nvXPeC4wIAd00UdgXoLzBzJzPILHVwsVSPuR6K8wkeWAFN6CRFXMblsCQIATum6Xsodx//mSZ6dK5VlPEoKr4LRoCLSdiN0sgqQjP1PsozP8e7jii+9Nd+8rvBQd77efj2a/JD+zGVuCbzAH7ttXm1ZmhRiQuYzffjIN5Booy9djOw/krs/1AxUfgXFB6y5SLLCa4bI/EVozLwOnKkw8DPDAsWAfjd42KR28ioXkB5GSp3RERs+X+yK1qCb2aeR1LhJ7uQTx8LdtPLba+zrfs/XB987vPjrX8wovzT3Q2rTx2ZOwme5jnlePS4pYmPaDbzL6g3fXNNiloHrA8gFtD6yQMQaJj92wQhWUM9QWKBcwD2mYChfZDbqRu6MRyNsNvNrowYwXRXqKLcqqh2wtIBpJvvqWzTx3yh2sIU557UQPVeBjwoJ4eKq1Hho3VRbYPZjGhff1IjeF+xVjI3htlaftFN4/LYZ+wWyuIsyXXDXpMds3P0abBXI1eOTWLN2p31RAQ8o4/efWz0IxQGDAcRsf15hhigHkY/asbPbLotB5Q66Fa8f4rB3KIaZX3u7ngAFHkWh6spHt0oeGDrIn7KG3ue1GX92eOh3sT9dlvXS9xPWqxmPF4op/T083hYtibGiNGzd2W9ULY3uLXuB1kvzN8a5IBu28M7gbq2HqXdfdXQi4dmA1nIGU5cANjcfoNrC6jqVQLiHFFIIR/h0zJzQUhY6E+7o/g/VbdAS0Pt8o1JSzUW3D7E+2MLljfaeo5K+VLLO8tSIdb3dK7FPPaT11mgq3M4baw7WXi8uqdlK4rGZX25HGhNP65SQ58UQHyYnzzvv4vC77zcRh/C2oKnUnJf9IUZJc3AEG8JRikHeHSSAPgz8sjfAnei/xPPOVxDNuheQv9Ujg5t0rz/gHfZmlOFAdvp1DF7GV7mjI6EM3gVqdKGd7kllNMVAkRxLgG9jXu4/FW59zwBr9f3XSuXYSJ7WdekV31dVuCgeFw1Q46cGY4qQ3bjTvvBvNu9FGmRtl2qntuDKqMJO3hxeIDovEtz5RwVU4RAD4dmD1hKXUoYWC6nFHJlIrKDRHugtCN/Ay03s16rFSbHCYWZ0ecOvHkVvBZZlJBgT63GIt8dic6OxkMbL1iogtyGFwu6chiaheEdh3C3FYzTYSB3XbtZc5pYed2pzZ1GFq7PYMPLG78U0zM5tmNoWWOZar6RzGv18NpeInvYVGA5hdFRo7FgPnUgXXgmjBYNytIjt0cgJ+juEdPhfM7Glv77EZZybE8sBH0qQN4OYts5sXVpzIB87ih15c8RzYhuqkM1ydW8JqbB9WX8HezIOt0QrO8rKSiPyYB38RWwQ6aGewbJd9bKWwktisP57dvSjHWK1nNpPSUhu5Ac9kK1VeWnp26dlnl4KnnSok9mmG69POAw0V6qyHv/UGSUOTZym4fvCYA13joPQL5jKfd0nlmsVALmo1e4ehBOqxhIjB9EyZK6DSwv2/BFEE+LAQarz9SyUrBmU93rM+qE/bOf/OYkNicwyLKXuGsrejVbfn95cbvOI7m5Hv6sLpN0ZSoTy461ED0g37Eq3NsP23W0j2tFo11iqdpsCxp4OVKN1zzz0t1on21/o0BqzmSQsBwp7LgqfVOkhj4mNg/ekLUu73gl7EJ0giirio4DotAlznXfAZA54GbKYUNA7sGRX4XvsKW/g9asbiloco1fm5P0lpgV/FMmjSvF+Qn+ZD6uA6eVyL1e+yxwOHTDTgUmNT++g0b/xIRwhnq4TPVouSzfBdVuf2N+ZpKF28aoC9SB6Dqd+fKVV4h1V/WQieRZYPJAPTWMr7ZhMzgblSWszpNAWWJnWEZtnNzOZjYjcLDDGbc0wEfWT3kZ0Nks2yzaXYHFM8u8Hz27JV0Z4kir7w60zuouZAdmcoE1g6SVlxWTGqcAsdvs20n74fXmxGKdYDA3Tc2LcZ7ZZp3Jv+46tNlc5uKHfdA7nCViUABJkAwBNFRO9LJnDeN7uRhQrMOz5JiG9h7bGidikQD9nOITx7W5uIvD6MBH2YjRPEPo0oPCzWvD5MJn18ZLZ+WfdwTXjMZRuTwU193NQHKP8Jmon896XE0TUYXgNHpo6H+jhgDZrAywXGZxIH1dUe9JGYD3IrGpovgWxPVNzk7SORkSs0dBqUyWVjiP3KCS9Fex1ooYP2Y/RjHnPxYF5FGEyJ0cBAcIzJ/Gpee1B4mIrLx4CHES+xuFEJjnttaTAE6C2HAAImcxodGlj+GrS5CSueypWU1Aju4tz35kAYuPi6UI5k0HMa1CE4F529JDryhZcCw1IlGznN7FaCmygoB0Q4uwLuAkOjJKOMVyP1BAaD3DmNZY2h6kDOuHrj75x6nPxcg95qvuxDJxSjkZ+bn5ufP2f+nHPmzplrLCpxTTGA4cDTDwHcUZgCrmvrNWBpw78Dq4FMpUnXccFf1wKxcbyomMsBed7Ln3vsFbim262cV1BeSWoYEApN7SSz9MQOHQ6gM9SGYhFNQrfy0+n1OoO/Df03va7RlQsTGh1+bei/DR3vNzSCntyI75YeS+5Ucq1IX4KHyxlmCvjecp0LvUMRzyP+VFzPZqCLW4rB80BqtG3Gm8shCBPYbrMyqpA4K2OpAtruJIadabTlfa2BVue0ddfVEdd7J3kYqq66XLMuiJymNY48m7Do8l3r/m3dv0FbF3HUFhLj0h5TMjRMLOpJcko4CC7cIA2BDqyusm3sJ17OrGQ8Yg/hQugFyQe56zJfOh+SCLptr9JcAXkgCdIBi88kgnrX6plqiEansHB8NczVbKJJHrpiyfhqnPGXWGJ8tfFqzARFW6wYX4Mz/hVXFF4BvoXjj1+ozddjeyU1FoMkPc2Flm6E5pkCEjwB327G/sHX1uXKIw/zCSoHlp6QvJBj5vEk9DuJwS0Nt53K+sJAKkuK+IYC4Gd9Xb9rgLpoUOvEo85lWmMKyUOjXxgVQWMU6hZRCYlGTi8ctXBUKjRFLbE2wZQAUA0FBw3ZQ9KO5hGoCXlzoKhSXIbp3qczx/pZf0hmea7i/+4tyQ+ZoXGVHzoi1vXV+m4blU7Qg0ekJCmdCThUlzhSx27KXK2EIKiNM47RFIlqbaLSfySrJO8mv5us0iWqi8EJiBIOS1bpJP8fWnKyUpK8KzS1PpvGxB4c5kuS2qdRAKNLtikgb3P6pDGA7Xnxch/KqLZ7IKPD/y0Bkicy9z4nwtfj1cMvaZ+SEgosW0ygWsQTHjQ81whsjDFPqXNdjOS6aDQaI/+r1uGIhn7pGSMro9Fdo7vuGgNR5VunCTmqvEs0GkXdYBwoq/Q8XJ9D19cWg7g8qt5HAt/JTubALje4RQXrjjn6opcHDz8Nw6p/8hAR98U0yRcpRy/nwQ1Mj2kCAMNtU9pBJzGYrnVIUiUYiuNhhUQBSJ8KmiLKlPo0REOjJ8Tk0nQFJH0VaDH5Y/2utqFGJROj6dH0eEh+6TFFOxoTGp0DhWhzEPTJCO4cQxcOHVhxyU7GE7/j8/gCovWfc3jnUW/64cMdee8dNzaJXyM3Teqr4bVJ0RGgcW0jS58g4TvZXV/K4325BJALGv32t4r8qmVhRQOKi8HyKBqhyPUCxTw6xChCm9/KAL9t0qRRk0Zk5PpxbA9B+yG8ij5Glmzgk1c3B3QSE8Ft8tgN7QSXHo+LhvqZxFTkvyMdQHqmSFwYrDjqXML90XV8D/TewL7ZFmUK7MVbe8q9PP/ODqpvEPK9zKXil0wiFczy2CyPPSYTyPVCeZlMA7K4HHF47IgjZFGmOE4KLYpjb1BCvBBAQB6bX6AxUZ2dLyR/IRuaXUkX/A6suF3WCwD5cADezl7npEFrdMM9BtTKRGayDl+QkghS7urhxaLQ87mSg8LaVbNBGSLcCtLdxMxxiSrZ1l0ayiWCyCyRWWaRSmaR5SpZvir+A2lJ9ROzrLkmSICKVJ607mEcShTno8GH5Enykx5G0LiYxYxBE9FGaqtjRZkDCeBSjsKxKKeS4yrHYzD00y2Sh/ZfbMZWhjNtrpSEkHLwo5oYtJ/Pz16aP0k62+ranTQBMVVSJm05K9i3PQ6JiJXE1ohYEOkVQRLfShdeNK1a64vDywjiAeOk8rd8DAwhMn1WJBKh8IqINSLffiuR5/H9P/6wPzPpWt2wahV9yUKlA6uLWPVFdLpN1fCxMf5+/WDJS139mHgqC1rt6qhGrygpcUCVZ5XOajZbjolNtg7y8P3Eq75B5wio6nr8VZuQybCvNOIBIHnAyDqJLfGhuyioRAKRxhsootAkOY6hacUeNpKQIQ68cRKqIcpaxOejgkcUV14MjkEQZ7XT4P+iaUUMysNNYLwALEIBoCN00osshZ2b6PDPP5vNvRfo5KY6YlCXHJOaLG4cLclqbPenLWDHSc/X32RLEvor/A24SqOLb3i+eOQHGpsXb13mx5iJq/IRGyxtQtaCGC5pM8bLxjWJLuFxjPAghBrCQMtFWi6yiFCwyI5CcUk7WNPitYcolC4CtERcxOL4C8EiOhxahMppERSxnoDvzQ2IPjNWteVDsLjlW4n+loBdJ3UmvKNzuMGMzQvmzSj29NH6byuNyCVT6aFl0ZPzS168er/X6eKNDUgBZqEnr+NanYxpqx+X+P3CvBlTDz/wI6v7IgMmUtrfOgOijySuYkzclhwkCkv4GgKNLEEgqzdoWVmCUNYFLZmHCkJ9FgqICEKGdBEVJILwHvFJzUpNzSK5pgq+r6GxcZSJnpK4GgKDV+IYksZ5EQsE9zHRRfIQL+xNTeVppP4SgZ/xS/7ZEcFuFsIiRXCQ/PKXIILAy+QCOY/yXRO/5AcJeF2F8MurULdfCsIDfGnJ0sbASz43Lu89BMWs1TnEchGnuy4AwFIZ8rHkQg5PnP8lV+OXBx/Myzi4pOSXJb/khxL+oYfwrCc3qBAHrkrJ8ssfvDw3eyRcO1NENIb9EvGDcaBXAmrgyguVGI/dSiLPTKeF4EDHELEKQkdJXq0Z2CX5aDBO9pCTwVFJg5aHwNHgaBc4cTEnE3kz5EGbYQZuxgyteGe1vNOB5PCOY/PyWuW1gpZHQau8ZzC+ZjYRjgFHn9KgA7xjiDewg7xx99AnZgKYo5KX+mWHl2wVdsYXaV+kpQ2UNtBA7JSB2GeNnLM8GDcQSKQ9mPbggwOxz85IF1ZoOKcHqVzSHiQ5Pcg+9KDx8a7Ai1X7Fmgd8TuGMGAFvV8y/AHFzXGColj7NGNnH1gqCKyUL1eFRrUAU+HLzTZbdTPWWSnn0B0J6ywfdWGqfHk+NLIn+2M+zg8QEA5lkRRAkK6zXjqGqE97neYzevJMrbmkdGHFTL8zU84vOB9aQRAYCgVTQCsoYKgn+IM1TbNE7BSheBUUMLOd4f4VZitVxiMC5yBmOBxDfAgbY5MIKklwnlF5azuG8peRUk1hGGijjUZaAIGRMFoP0MCFkVYwjsNpRrqNyomSatpZrJ8J/S8oEHdAYxUgp4g+pxCNRV3om39DhEYxiEKSr1hTp2pJdlWFqgnbVEvZ5qefkn5KStoGdUColvDTK68kvZJUNX1R7aQwaRsA9dnmJ/IC1U6f40xwIRj5qM8P3oONCgBxMP1kp8D3I5Ndkq9Yc9eqSVaVhKIqCkVtoBVRQuWyTRGaom2oXNoUVVF/h/+TxhcRAoiV3DjpFKKPoFVSfTpvgfSQvH9YOflbOSGeouZF0Jo3r+yh+ZQIIAAE8aCkcvov3B/hUin3axGA9FY+3jFEqqA2nWaCG5BzT+mMhSopPyolVPSQklKpQ8rn0FIACgcSFC4A6lPJQ0pl5X8ieHf9+wKQAMrDJscQOYLebR/g/bmtlrx1V8X0c8UOFRPu3f/e/fev4GH/x6HtD1A53AtOj99LckD9gIpJBsbMgntwvp8+m5xMN6URT5yQI4TcpxTZm83L9+U77yp0mLp8h6kzoE0NkB1CdSnvYeqNoFVI/uN8DRVcv9BnJCwZshxDWgNa6c1ivK9kbzYvrKlZ+ZPnGeU6ZHSDUK4L3fzrXxn/ykA8YByFT0Y3VC7/yijfeY3xr+qHgaRJ1MkG+QW2yTnEGUU8RyHZ1i8P0fDmsKYG5e5cLNsFoNwdzm7dumyH1s8/f/bzZwcBRBDOfh51OPv5cncuJ4qv2PG5iJXkQpxD+NEKxKP8EMB1IJqVznLKdfaU6UKZDlsUb1FcvAW6AEKZOxS3aLFFC7IHlUtxizJd9mN7n5NqTMRlE+ccqImORzqaDP8eIT4vm7FJ5Ne6xLzu0ACrCmyZZ8uQoSgAAAMaAMGGebgM3XHHITsKPQF3NK01UbHpD9oUVM6et+Q0NcsDaXNXsdEbQqAn53l6KA3TToBbF+BKAyz+LT09/pWeceMy4zKZoGFID16ZIRloQ4AhtATYIlq/KKORz0gLD2XCYE5afeUkYj3M3YAxlPFNUIEILUBfATvez25euJ/GYcqZZ4/pPvrHt8W30pZpy2T8LJkrr2y7sg1acAC2wD5Crmybv0e7QnKwQ79SpgasftwWJxFT3LAW6JTZoVgpAWGp/mv61ms++srfY2KYcgI9+/m8T70r9T6W+mHQ6okRWvAAL2XYWmvVe+0HWscnMl7gJZ4xN045npJx/7gCaSZhbnPxezHpoWKvVfh2py/dP70w3Szam5mXnvRQPCtPHYACADAQBojFSw9TO3xqdh0iSzAwalfdC4SZO79YPw395YzF1fNhs/XhuVPuMpssY93szAJtrYftdlNcCy7y/hSRs2VC4YVReexsNwXiXmn/Hlp7e7o9nf4+HTQQLDge72BK3/qoiYDOBt5gD3P8YbQk5bfcKR8R5ilz7h0eI9gZNXWauzzIADqw+YWHKhrLFIJgOwo3WeOiNDgXXO4zF7fuojDVuEitkwpjMddK7O6703en0w1pcDfEoOEB6VgaWiwW867pheaVT+lYOUTZlQXNsDtaKJ0pBSD4k7QgiL/mfOCujm8PFEwbiJJ5BIMmsOaIzuWyY8FJqCp3mTtubmGYalw9hjndt06KMFWVVUE3tKoqQFSWV5ZDq6x0EJzuzeFU/ksjzij7ahF1ShIYGatEfxKokTyigIOvvEHfxRxcHOgEAv/n3iHE7Dpj9mTurw4O+9lBsRN++22G033gcvv7+mhKb83XVxOHO9lO/toXOv/v7IR9aABy/zZjxv8z/g9GYHKsi6m8GVMo6Hwg2ZFU5mYFY6ekhlqQWYBBIS9gvNIBYC6Z/xU+RJIbOFSBXbNzlmg7/W8j2BZG2WZGddmJwG7X2dpIOmupvuvb7Qg7+XFJVxdAR10y6hKUUdjddUkXdnRe0gntEmfJp/Bnr7DGt3SF4jNMVdD/00P9e4EFKSAHen9ydbR9h7rwr6FMJplWr0iqBNtme8m0GYmVgGLFVFvJdZvp52rdQl6O6m7T42z2U7X09K/u398607+pqbqpGlqTlbxZqI8GheUuzT5F0CTzYnh+QRJELSqgoBzstYIB4+L49rUCSuflKHqsxOIl0Mdma66wGgVP4GZW23xzHrP5e++txptHNnfBs8OlL1ePdjY90Iovb/4e8qEIDau9txq4SQbYh2LTcwrk5JWJEdlu8G3GJn4KSXS+rCiAYAp06ipdHKQcBF/AyqDG7CyFpeLAzbbSTk6rOAKHeewxC+axeLw73t3Nkf88PmZZp1lJLd8NOlD0p4XtPQbwpJm3S7j5Eq8Vlpk3ut/oRgFgHKCPvfEYtpDdAHkDQI9ZjMzWs0dBnDy/5SL0f1iOIRYRJFE/WCQF+UN+ia6OuxXBC/gguaOIsQz2khvY7AV6wLTgNotW5GMikXgkDk0w4Jp8/TAf7+P0qnw7l9fjOTuIox2HcbST0yM4M4sza06zkAsWI0AmEZsgyIESF7flmy3SF0NM5h4apMOMzcym9bu9FBQdKZgo6qb1wd3Be5fH7QDxKTw6a7R+MwYWHdi7p1AnCpIr5XlYkocpihRFInmIyFdfFX1VBO0rIJAceRNFNTVf1WBLUQS5ICRTUY0kd55ScsVPuPBC6jYwDTYYqdOUCIOPwT/rO0mVZoMLGNgMPhN3dZCzFG7Sdj91C+g6f2PL4gYAxlKycrUgFxFMLub2KVOKphQV3V50O8Fx+xSyQTiAZJxShGyS3Hl6VSgL+EGJHwXs7mspodql6ysqMBozJVlUkwDQAgWGQWkqXR0qqMCqTckN+N7Q0oqKuEFV5UpMrvqco8lBXABtBEo2YkQtNBGDIKFYpLhztCCE32UJ3gzjIyk3ZlG+seXIuecUmN1hhFE/FSjQFkot6fJQLwWWjofOoGYTvNAxVq1CHsGOtTpk4ytZiFoJ6V3bu3e2ovePP9b+SDJkQX78++/efws9JF+tFHeu6kv5lGnEgYONpCpQ4bfaDCF/SZCUSbxWgEBvKDp9XB9E6PAMO7QhlJMl53cGU8Cn4Js/X9LNNuvNEBQz4p4338xSvDly5D0j77mn9z29e7/Z+02gkAywDwUgQCP57uktwZ0Fz0n/8301Fbx8ZQTh0GP9kcXwCVBUkkaNjyKIKadf+NdQykvXh/6SMJbBD9eJpDu7vn3fdgxwYy+ibbPqY1ISs8IEaW01IVpvvjlxcwIFHCgASLyZeBNaIiFmI/kSrRJMJqkyVweqZ7RmeXR+bmgRTRKNzKuKQV9J4iid7SYOqekn2gVeytuuEF1jiantZhKzeFqK5dZ2BtxXv2QpBjemQKO6aYSQYlLUXQitTiQmSd0J0LDBKKlbERphAI6o24jbpZ6iSWCTxQMsa+Kjcy5/yp9TDGgclORRlQoICACUgKEx0OVzh5vUcBckgM56lhOFfMQmoVfVzO6jtlFONV5ygyQYA+Sh/VEe2j9oIA8QMxkAD2288f4bi7hE3Ea1nebJoGyRX/2omJoU39gzvxlTfyyZAtBlcoEAcn86bGiNLhL9pFiksZn7bjMNZDHeu58t8nJd2FrdG0uMQT3QAfSQVEoPSL38sl7ycjKZSqaA8dlnL3+GHbAPSMiCkvwM25IpbALgZ2S3Tj6XfN0P2GaacQnBN57MFm/cGxlSANRtj/XBaTJ0ls+WrhJNY4sdyAnOnGRz8mT9cqXQlw2yq39a+thfd/3USaKpaApaNKoFRBuhRSHYkGpEHgjJohM0nn126myyh+TWCcWDUq87CNus2k5OJBf/n4mlFAstVkghUK8KCJBB21v2dpAuE4LrKBZlLYnhyjbGpXL8B3iqhNmk7dFCK5dpT7kGoBEchKKVHFQBDRu0goO2hYYN4w8aDw0PqBhfAcE+jXijhac08IQWHtSchzXymeZQjie49SFY0pnhY6/O/AOxxhuzNQ4wp1qMIOj82V5AgK9hUhDPYMBKF4piGJcHyI1dxO5idIVTAqu13J7P4rbSpgCt3L3e+PFqwPjff1cLfu/oGN+BDbAPggwo438nGdQMv8+cqT7uap1pupSm79kcs7P7aKCLCVdojz8CtwZVS3kX3o/9I7EDRM1gbi8Y5h9RTHQOkaKgqoRZHkgKCSwsmYlNw6RLRWmMoX31+rGU31PWYJ6Wr894hcFBHbzVcp1aSFUCFcPF0K5FwQY0QGrUx1uNmmyo7iJuVWupcpaqHBWyquNIKYeahWDOJeYeoQgyGVC7WTtVLC/FQW0tMED6ZnZ76yqm99xH30lXi8J+Zo1C2zeU3GtcFYT7QtyWC4ixOKrEAuXxXSlAUTocvRs0PEDBsNup0HaDkAwAUh53lE2VlPP8o415quMnWI9WyRkS/tthbYyd+kdkomUapbE8UbHRNkGKhLusxYEbh5ljG33SFSPfYcWoNre4cEIp5rGTj3DzC4lVXBHLlMchhZApHOQMKLPWmzVrPTAoBOstu+ysZWfNkjvMuu66Za9bFhhgUoDrylQq8bhRtDlMefwEq9KZJ+GcWqHUREsl4tOPz49hzH5B7O4qhUINzbA4XGL6SDEq6UEUkV6YNCajLCv8Llj9BSmKlTwOUBzX5R+VzOG6ZmjXXSccIGO47nlo1wmiOP4rxE5VypWOlqU4xSG77jqFmCk+QqMAo1YU1OLkWXQMWs9j96kxTwqGuur8QOpkuBWjlvYPxiYXVC/YPSUoxiRxzuNNQ7RhYy3rrJEdz1kHlsPpLS2w7/Tm05uhnY4crIeWvWQ/ApmzWx4qXP3TC4ksjwOb91KEoeI37T5SS/zWBMKocaKiYlblXCkcqrXzA6nTO4m9ehB2+XQHHOdxHwCLAfpITDHBhe20Mp6FzOc4+3nGHnLGA+OwxUdbfPTRFmgA+5EznzuM2MCEPoomRpZ0Q36pIuzPxS1kTbHoDTuGZVYkshBvC39jNXa7FSuJNaQUkCNTnB/IPncUs2bgBkixGI4l7uhQYPyt8WviLsMEbyYUMKGxV9PFdgYynVGMmMx4ZrKdkUzokDUlbExggs8PdKj/PU3/2Q/r/wZVYnsHzaFTnVV8u5Yqr7ErUTGrS7IUElUx2PmBnI1x/0Gu8Bti5MVApRjpmVgptKDOSxH0v7PjcBzxMmDfBGU9bb7E4nVlr2KXxpNbUlCUTq4DBJm7WCGowS4sqiqkPLoMANXIB5qMjJXCqXwWotndvdzCDri9m1chqFumFJZwA8oBgpSlwxWCdC4ZNOE30FsDDjHBe94VjzXAXTkwOn43OcUMe99jN4or2O2kFBc1L9IJgvSH1pAVhm60RrDGFZuIN+fJFYEP8SfJHLqgfy5hRNcFhbzfx9ow1GBANYWifq+l0KiLjhBkynQkl6V10rN5zPeazlToTHsAm3v08wn2wR4KXXc/mIuGcB+bG42fLkWaZo/muVJw3OMcIUi5IxQpqOhbx7KxDrRbBPsFBJ2bp08E63wFObEM9iF7xmvAPsVaxFlD35x2BdFRtXUCnSHISU+wXib3LhiDu+pljkso2cOADSFWiERqOIyKDFZPQMYb46BjLcs5UEZh6f56aQKoIiTgnuHhlgr/dBu3MeVpVxjthfL7CZizytYOOyRAH4jENtj7nbwd+Y4zughE/MiHqHN8IxZdwE5P9qcAmQwPt0TIpNu4PaktxRSWEo+uDQDDKoz3zma5yCb6LeVjLX5kq3fhHGa3fLVAoSnrpzQpGvNkZSDp/iQQgFiGhwuTfuEGcD5EjYPaMJg4OHbdFbb1oymk27gtqfdqKzR1mQZo3dc1EXngyyFZwBZ8MaIQ+RqGjhGF7Q5RoYggXqOWrujGnA2oQ1KKBzwv72bF8EeEDA+nmP6JlWBDcAmcFcDKJWeJTPZiESLpNm5DKvoXzD3vy5IXgqAv+hd5c7HvKzg/Kg6xuSzJOPTQlJPFshSiulQNAEghkXWhrShL8odghoeLC0aH/NuItG56j0y6jduQ+q2fwtSs+ZMYbW4lxjKRVxPYiu+YGISEA89FGA8mqSw9OoZVv5+OOyloA3OkFBTZHEiyAcMdkhkebgpMBPamEIVNRhZw2btQSrdx21HB3WsrTLl1+FdT8ntRC2rZd5vLNHmVCACIu2gIE1tymAmk5TFSRs3sVljhqscFKcUlF/qypH0eb4hmeLgJkJnOHuoDfmtC+R1a6TZuPyrv/boKV01qGRDgDtVH84lr2U1x5x+3HJfYAlypWi8cfT4bf5NSZOQhaK20d3hDNcPDxUcOh7ESG+AkGTajlm7j9qMS6rgVsl5fHHcfdDkmJxBQV39f4QQBKrgVBu7Y2L/+jykKej1TSoFhMrqs1nKGboaHC88+GHG5uETGw5waCABQS7dxW7I/knUKXf+fi3eITUVdObbFlOI0x1FV+HPobK4UH08D6G59Nl8IZ3i46PiA5yDj+MeLTX1EMN3G7Ug1O6746xNepq/UHupUUjB0BIzynk7c36JqAKiUJoCcBB1fez2+UM7wcMGRj2BMx6UVjO0E023cphzk5ynuJHCLcqKGuYI2GZehWUiLMvkWfBnfP0JK0WENLeN8rpDO8HDBaQQ0/ODBxNcZxGai6TZuS2qQjsSX3yWGGkBrRtGmFTgosChofOLIwe5vBtBdfFg/8nVDeEI7w8PFRpZRvNcj3ipg2yqq6TZuT2rcOp48KRuFQGoSocRM5Ty1hMtzWNl46dOjoYqfTr3nk9JMyHsJfZ0RwRHiGR4uNrVgNMdkK+wUezLVdBu3LTu1uprMNUvVdp7fFcalAbqOQfiLMLIF/opRTVj7Y73LiqeSV46QUpoL0oCFloQ05Qj1DA8XCqToOFzA5CCIdYTTbdyu1JSenHMVMrna/SEvusIJmyeaAeCPoCcmHiBj3vu6QajirCPP50ppPsiSQLxz+EE9w8OFRn7OOfp1HYHRrCOcbuP2pdbXGqa46069R1VXjZIQGTDQYt1xVGkEPInLAuyIJpc936u3hqn468IfeVKaEjHQ5XDwOoob5DM8XGhGc65mpTMFVr4VTTndxm1MxXS47aaRZTk6wtNaa0OCur7fE9ojYDZNfL8rGGcCPQ/bXrDT/SaFFQk9HPlWMtSbFDIVGgKi+9wgn+HhQpMP/CGIJnwXS+Rq2uk2bmvKADYPVVSU2P6H5/2vbQxmDCbNLzzBL0Vu8VadmeDJc6purXfQq8io2oEMKc0GlJVsd5IXQmR4OIH0C+eFXM01nrP7YR+SHbTTbdzmVNjHxxUpZb0+PrLp+Ustd0CvApA8adgPrdjf8+uRJV4nE0sysnffGkOTuSGnQk9Mt3CCfoaH0+j3kBvAr4p2PGMLFJpLPN3GbU+FNB2qCCoL2tAvmyC3lRjy9u4eJaX5Eauhg9Oqkw8CZHi4yOR24bk6+yqCWEw+3cbtT3nqtopTgmg4vTdKU0Kwu/gkKaVJgZTsMl/yQYAMDxcHtDGuZmXgEAurnn2NfLqN26KKPPlDshJCEyr+sPLw9z/d/aT7lerx/tDlt6xHtTziyVxxoeW1bwpu+uTuTxrL373+WIdvu9ytBEBDXnZMSmleIM2vYVJHLgiQ4eFC408Sx1nk2wQzgBAAoJ9u4zapYs9XSFQiKrzUndcvL5Spsjf3VIl1tx8f/Xn11fs7D7caXqdbm2L1nlQocSp3741zCw5O0NALe5WAatH8rfTKMVMi54Hz1YwHImR4uMh4DoJow8++9E8CpNu4faqu/RtkqQIIbd6wXUppssh70M+bgTwQIcPDhQHPNEN6GgaZsJpsISKk27idqvXPfk4vICB53YEpUkoTBC2DaNwvOCBChocLTXk+ETQF9wS6V4h0G7dZFQC27/uXFgt4b2zSBJdQMNXMwUeIDA8XGakjsTupT/PHpl8JkW7jduyc2Fs+C8wbOQXqikk3fITI8HCh+QTWjN7HTgSownHiJCHSbdx+ZWwBwE9nmyWYGSP1DB8RMjxcaFYk85nF/LKgjb0tSLqNu17zXlhdMXHkVSBxY9ARIcPDhQPBgbmefAJU+EyQdBu3XWllsTTT+AYqKzVPENtcHw/GRoQMDxebibAGJOz1D4aCykSyBUm3cduVBSCjhaHWhHtB5Ve7AkBAC1Bnr4nD4EqpzgRsRMjwcLHJhNmBbsRj/VVfFSXdxu3gGcn7Tu6fOVCH17GsBG/bkTrpBlw23AH4rHzYzBzZHEjWZexx6wiQ4eFiI3diOCtM5wmErS5Muo3brHwG8of97VddYhr11Vh+PM4C3vbc/eKrAu1+ylcYlLnVpk4AWBWoqZIUZATI8HDBecEjZQPKwNL3QJh0G7dZecTqw1QA4FaHH4++9Jo0Gt69w//4LRNlxDvFzRsmV0qnISNAhoeLAu5alt2PXxnyojjpNm6zcoplxdkBuhM0UTS0ddM+2ZfgwTN4VNkkQV+eG/XFpaoJ/Uc+wo894BBYdL3ESbdxexVfM1Tjo5OLnu91e6jb1MiaV+TrZyOi0G97LC9NHs8TcDesVgzuHCSXQH81116kdBu3VekIap/GXIydeW9ip+nbyhQ2GTo3adPz1aKxMSiOM7pBtxs/c0duBK/vEGsG81bOkch0eJgEupx1WqR0G7d7Wy2eQtvkfODfVf/26/slXmcJTdLLCk9Pj34xNpJ3RemiJo98TwFV2sJBMnHZHftDlypSuo3bqvxCIaSHwRv7VNJJf77zCx3xYJwwuP34kPvF0wdplUbMhoySh5NBvlfmCIe2p/GpBRDMBZ3sHkXOnoDdQqXbuK1KE2KGGwLAJg3S8QrBt/SGvfOu6ZMNdQUhIsa6wXFgrm4mnChQl/N/CJVu43bvnY/+GM3VwvQX/Pfj/BMdvspLDX15ofSHyYynNFl1C5fqPHSejlRh6sjFGqehfCE5cwLko7bpI/1JgnZjeboAgtG4o++8AuqcZpRQ6TZup3KC/2T9I7oxMCDQopHgALCUqJxRkxL2p4Zsb3TicstDb2A3gFMmr/hbAqIzc4ODGKlUOrSIfgXBG69MXZ/pI08DSTRg8aCV4eGmAJIDc/dRv3Qei5Vu4zbvW/aWuMDdqCFxbSpsM/7sC/I0LDjY/AkAgY4R4mUeHuQzPFx85HXQAFliwBcDQOWHHwqWbuM2KgNhowLDFK4pQdWXQ5UCvrO/ib0LK2jWYLhS2goP/hkebn4swlx7k4Ng4b8TLN3GbVRu05x6ueZQdKyOULC9vm2RSYANEH60AGRV8OLwRQM9w8PNCvSYpl5EfMF0X7R0G7d1bx3Saj+FygD9FFDts1EZnA4kuY9EB8mXzp+tADkVSOgkLNAyPNw0wXJgbqgHWIRUG6s4PoQwL2zd9ZiT7pEEdCxO8U9J28gBCkgniQ6WTwptzRocV0q3eZBAyfBws8eABS9hJxxPgGr7REu3cfuUOWRdt3yPwMr9OKyAfB5MAk9hSPv5YDOE35rR+QQJ5gwPtwI8L2Hzh4Hlxfv3wqXbuH3Kebr3n9eeYLOKXThnJJZaPlnS0CxQUalJg+RKaV0DAgfGDA83T/CrVp9Ds6uzS7h0G7dPWQgyIUL8vktWeyPW8oOsC+WSJMK/g24WSdZAZFsF094AMJ7MXKqUmcJh3Nhjud5V3joQ5ox9SgnQ2qqlft9X0xHDUMg4qID0klzAcoqnqkmD5krpAxQYMjzcQpA6EtIc793FW5wKH7oC0DEgbJRUNMjLsfmipx7TZN+QLRZ6YLKg57uE14DjRePCylpohxRk890QWz7Q+G9scgGQQvsfDoIfFbgYmd9a+tbwlZf8wIiHQg+TBs+VUg01mg9V3cpiGKVRgBIZwgQ3XtasnnQBsJ32fRswuDeU5LrMVHdD6SvpkA26E4uaNIiulN7nwlm3shrkFyihvTuPWA1rkQuAS8QtqI8aphSXXIYygIVEcK8aUhidbsrglgbM5MC3bmU9zEQxKLkGYkYR3EHiPhcAB0Dr2ESIGV6twmaXLhPcYLFMytuh+1TRloG8CqRUAjOkMjzcxEgBNTiKQoiT3w8iptu4bcpg8v/+TNRguOWMsjxDEQXtwy+E/Jr8Km8dZEDtLlfwsCBEhocLB6YDczMRThtPYqfbuK2uH8i78OaZymEJq51WUD6UtCgJanhiHciy0DOWISwQyfBwc6QoQhz9ekCc4I5ETrdxe51zfJNcGnNoLqghXSzohjJdEqM/yNtA8wU/d1mSWjLAK8PDzQ1MB+aOBIAxx8lvJ3a6jdvrNINcnpLUdC8JvPeDhj6yJfhqTT8Uz3i5h0NviJUQBnWltFoaHPwMDzcx+BzSxzF/Qr7ATrdxW50MIVwGKA3fAabCLNceUkCOHJPcwLxkvtVKkNuhrpR+Dwc5w8NNHgMSdErNai70TjB2uo3b6oSIkSTy0+GjVcuA9FdyXAFxLxJiGb9XthTkAXBkecCgZni46SOrgeLoxxgnv63o6TZuq9NMDJ+RA0BnMORiD96doeF9SY8YN8TZJ3MG3ZXSOzlQEDM83Ar4ijGOfqtAfRCip9u4rc5JQW5XLCtqKqgqe4IexAWUbcFiLNHXeeYMviul16GQy/Bwc2Oul204oluRLyRfAtHTVucPUaJWffmhgupBUP2su6EczBBkYUwNM0Fo9BxWbikMITI8XDxQJzzjAluc/HQm4KfbuK3OT8LcPlg/xOnfrVCSgva61FKUdWCfbpYQWP/iMMhleLjJ0Z0pqhsdQbMGyyHdxu10Dovz70bHczCJgRXI3wpVUFpLCiBFK8FnNWQfxIRchoebAsgOzC1hGZLKcckh3cbtdL4Q57637WugwKbgR+RfhRk+93nfC3TIXm81yEKJiJDL8HCTQ3ZjiaNfP/Rpbplp9/+GjgQhk+yEusxTUHV+e/OTtBkKyhqfQAeGuZaD/BERchkebnZcYoij336IrYAMKfHTbdxOB3IweSipCeOy2OuNUsrgIorhNjVKldOgwe5aDzG5eFDL8HDTIwBsOTxefQeg7ojhp9u4jc4EoW4ymNeSFFTVMljWQUhciOQK+rj6frMeZGo8GtQyPNz0kAvhriZXhLrTip9u4zY6XcRap+CNFVizUjopKN76ki5nQaHytSBkVUxIZXi4+VEKHEe/2ERwekYLmG7jtimQMYfcEPO+R6/zRIH5ShJmIqjCjhUhiyFCKcPDaTCHNvIlNI5+mxhuGSDipdu4jfvvBoGHNAGA6wpb9yUhcIJl+JklEXsZDVIZHk6DS8QpCY2jXzGG5BQSLt3G7Vyzvw0kaUXqSMicCiPNItDQESwJWR8NUTI8HDP9wvmD7sBcehosTn4TAnFBWbR0G7dN8SdKvFvAXexLVF52laS5BHKW2ZqQC7EQJMPDUdMvnDhSR4SNhegzJl/EREu3cduU8gLGrCg1FJFSgyVtqoM6PrQoUtoiIUiGh6OmXzh12sHcnRnOVpNcsHQbt3O7HdlpHv/uToSj1n0hcz2ptUUh/aGzUBAlw8Nx0y+cO/gOzHX2RXRhM8EoWLqN27k8leS1w4vFHkmdcaB31aqQtVAQJMPDkdMvnBc8HdaIL8ta7VCodBu3dXlX0NwjFXIYa4NAbjVaFsHHERAlw8Ox0y+cOCch5rJ6sd6uM4VKt3Fbl1ZSAD1AYaSUUsCffGhZyDFx7AiS4eHo6RfOGw4OzBU6wtwRplDpNm7nvslhEfB8gMDtCDEX/cRn1oVszY4gGR7OIf3CSSOfKgSNDgqB0m3c3uUdQdbcFzN7s6UA7AFlhKqFIVcyI0aGh3NJv3DSFA0KnJXhJFK6jdu7TySEIo8zcnCFhCFAbN7mWBkZNVkRI8PD+adfODWC77DTQwYtUdJt3E4lFTYfAmIougoTnY9JIfgKZCvQypBl3YwIkeHhBNIvnBqyeRAgBf9KkHQbt3vv+JwNpCBaMZ6B/yfK4eM06O7qYmnIR4wIkeHh3NMvnCCNAgctva/FSLdxW5U8kN1GUbil8VEx6CtEyO3H91sbYVXYEDzDw+UQMZEDWJkuIRIi3cbtVQIAXmG9ninPeNH7azEYDiHW2pDbHzIheoaH52j4xOQrVlZJkARIt3G7VZD2CO3FoCXzUJSneUTgCeT1us/ikAeYED7Dw6eLSYKXjfEeGPTTbdx2BVKAuNwc7pcmamSMAAwA3TuLrQ7PbRaEz/DwQ2IiK7DxE/SvlXq6jdvBfju4cwVgx0OFoKNp9IEYIL5heciNGiYD4md4+G0x6RsYFH+Ig3q6jduv6IhCxvy8dKI5vAYMAIW8qL9tfciCDIif4eG3SglJ9EMWNkuwaKfbuA3LUdBt0o48nyoslUkQr8uuDywQ+RSOCWR4eH23iMhu+UP1mdQknW7jdizTxHNewYdZm2hYR+HiHfTcCsk+CMYMMjy8pJBcYiBxkoSLbLqN28e5nPMtbaK2KUzFFSVNVdCEcVoh8rdEKGaQ4eEBgOEiEhHKJ79qqKbbuE3LM9Fe/U+ppnCV9SFltoIir2iJyB+hmEOGh/eNFw95Ec4eySKi6TZu11JWsKmrNmAuK2y5S3roUg/kNqk1ErMbiElkePjgzeLRBe5NOKPhaYrpNm7fMhZCe8KcfKg46HoKWSAFEN40a0SOjYdhFhkeHtaummjIFuAqvIwvDoRIt3E7N+w/iblU8fzIqRnc3i1EifSCZrvJIpGlYZhIhocX2llXLEpySk8qWuk2bvdqmDjWb6N/YOvhgelrXEPvwx+0OQl+YpnIYiCEyPBwAukXTpOxUMv4zN1ukkq3cduXJ8JkspQB0V6x8L4sxLSYxh5+SJIvYSGVs0CJkuHhZNMv3JrSbdwGZqso44zqkK5YaPiWJUe2Iv2PfATpYcEmu802w8MtMd3GbWI2iTHz+jFNmZ7D3e7tXTAeYvq2bgU97sDc7XBk6gToQnoYObbMYKsx1Dr/rWNb+50a2ioBrKZkRTozSfEKMAeD40IVC+mDAuvnYi9boJKGEKM7LEFTHZpqTz5mwjEfuRULnQPvYz2qt2LSz9GkKAJ6S6cmT0GLhIQUBlBHYKw6mRpUNZn7jHY5RhAiAAzkI9XHTk36QvDGEqJ/umJi8+ygW3s1ZdvM5E4+fFBn0XS/U5NbpFMPJpZ10H/F8vBvdS46/BggNBZH+mXp2FRNwlPwsWipYuN5MI+u4+IaE/k5qCbBVecmI0FVaGNJ0LUyq6W/0XBTrKxHu245QAhExGeic5OqiujMH0wMVWxomCyjmpp7g7Vn75ME+AJUppMP3LnJFjfJyIFsYfbsXUNmc6037yizTyiTeTM5EZZJTE5KoYwx/BpnIr5itpm9hvUsI/g5c4e6ZwMA5GyNqQNOTtIUOe+ty85j7s0Qww5j93DWTS9h4CCXPZK3nJxMoZYZ+3NXsrvjgOOPvwHDPCqMZI3l6/lxBhjqI0endoP4gRtRTdk7xx2QiuWI/3F2BwtLB3NiBcyd3OKOSTDd46zP6Q9pF4rgUW8KnsGuwYpZm1fRSWbuhznOTmKTYCaxeJhR9z1rgeAJEG7nUK0RvND8ohGVVXN5Xzo8tVOB9AD/R63bK3YdxO5Dffs8BMeCrpenEUSMa45JcKdPw/0rsimS7iipfzA8G7+n752KXYk7j+FSR4E4Jx2fmgUcbmQqppcFOhNQ5kXzCB/TJHviFbu8PbpwH7pNO+cnExVM7bdg0XFavMLQjCmU78imM3Z4sNyHAI71+04+bM5PYhYomDSU/SgFGZt0BIWi5GX8+gwJG+hWGGpxdxIGM5MVjG+lA1TvgX2GM2jCfLwb90FhhaN5fJ2PK1oTKxcEdsQw4hniVTDGRzhBkeCTF3evaJbHX5oeqhTSr57h7UpKxlWFpNDD1VnewS3wUfbtkY5QrjFYOWk6Cfa8u15h3i+dNzeiYYUeS+nd9gBNaM3tBW/E0tbnRIRYfFm9OsJdf5ICNXKVaUA+e947Hnn949NoW7lSIepO5fNzguh569gfT5IZWq7445IOUeYeYR3Emg6/7frTkUWeDMBfdgue8nRGi4u9nPCXe9q880BnwrKve9b5nbFo6BfpGFVjRVI6xiZKA8/JB37YrQhKQ812jiLbECR5YJSkpUJVCLJPOkjpepkca0IkOfkOxFFjsXSUqmwWLV53kCQ1e6SbFDPCnKXIZ5ToXJzuIWHEDEIc7CqdptpAhiMb8iRldWhBBR1Peek81WEa6FgPyHcjGPHHZRJkFZUOVHz/TuFH5SZJAZRSozN/4gdJZ6o28Ca0pDBlGXl3eS9q/dAR0qmqvslcC8LnR0qBlFf8ENf2im9gl85Vla3JjVOVhDOBGPPxZm6U2CidrIp+l09F4a2CRt21WbcsHjx85ZEOV1WvjY13W0GBh9I9qtZ4dHSk8tL5quxanRFxzxqSIPxC3n+nFCY15/ukI1YpxYchmWZcc3OSNAMFgC26GodVXv9trnTMKqzxVGbHE1s8bZwhzUMR/ri2ItyFq493j5DOWmW+Vwd8RSpxr8bygrPNyIX5D38p42Y4Q/t2tnTkau6vd6+WWZ6VfyFLes0S79TYEWJmV5/Wz5n/y4za3iAspAwYWWNQhnT4Km1FqgEZMjkq2Dw96UowYC+d7Hu+3bMddQ0oA5gr/9WH/s1//rUTEg==;imageBorder=none;imageBackground=#344756;" vertex="1" parent="1">
          <mxGeometry x="-610" y="610" width="80" height="20" as="geometry" />
        </mxCell>
        <mxCell id="tJPOTWM7rPbdsHeLChuB-29" value="&lt;font color=&quot;#344756&quot; style=&quot;font-size: 14px;&quot;&gt;&lt;b&gt;Сервисы&lt;/b&gt;&lt;/font&gt;" style="shape=module;align=left;spacingLeft=20;align=center;verticalAlign=top;whiteSpace=wrap;html=1;fillColor=#D2D2D2;strokeColor=#0A1F32;strokeWidth=2;fontColor=#0A1F32;" vertex="1" parent="1">
          <mxGeometry x="-180" y="310" width="110" height="41" as="geometry" />
        </mxCell>
        <mxCell id="tJPOTWM7rPbdsHeLChuB-57" value="&lt;font style=&quot;font-size: 14px;&quot; color=&quot;#d2d2d2&quot;&gt;&lt;b&gt;Системный дизайн приложения для уведомления пользователей о чрезвычайных ситуациях (NEAR)&lt;/b&gt;&lt;/font&gt;" style="html=1;whiteSpace=wrap;fontFamily=Helvetica;fontSize=11;fontColor=#0A1F32;fillColor=#344756;" vertex="1" parent="1">
          <mxGeometry x="-840" y="155" width="460" height="50" as="geometry" />
        </mxCell>
        <mxCell id="tJPOTWM7rPbdsHeLChuB-58" value="" style="sketch=0;pointerEvents=1;shadow=0;dashed=0;html=1;strokeColor=none;labelPosition=center;verticalLabelPosition=bottom;verticalAlign=top;align=center;fillColor=#FF4C2B;shape=mxgraph.mscae.oms.alerts" vertex="1" parent="1">
          <mxGeometry x="-820" y="170" width="17" height="20" as="geometry" />
        </mxCell>
        <mxCell id="tJPOTWM7rPbdsHeLChuB-63" value="&lt;span style=&quot;font-size: 14px;&quot;&gt;&lt;b&gt;Копия приложения&lt;/b&gt;&lt;/span&gt;" style="shape=module;align=left;spacingLeft=20;align=center;verticalAlign=top;whiteSpace=wrap;html=1;fillColor=#D2D2D2;strokeColor=#0A1F32;strokeWidth=2;fontColor=#0A1F32;" vertex="1" parent="1">
          <mxGeometry x="-230" y="520" width="210" height="194" as="geometry" />
        </mxCell>
        <mxCell id="tJPOTWM7rPbdsHeLChuB-60" value="&lt;font color=&quot;#344756&quot; style=&quot;font-size: 14px;&quot;&gt;&lt;b&gt;Сервисы&lt;/b&gt;&lt;/font&gt;" style="shape=module;align=left;spacingLeft=20;align=center;verticalAlign=top;whiteSpace=wrap;html=1;fillColor=#D2D2D2;strokeColor=#0A1F32;strokeWidth=2;fontColor=#0A1F32;" vertex="1" parent="1">
          <mxGeometry x="-198.67" y="560" width="110" height="41" as="geometry" />
        </mxCell>
        <mxCell id="tJPOTWM7rPbdsHeLChuB-61" value="" style="image;sketch=0;aspect=fixed;html=1;points=[];align=center;fontSize=12;image=img/lib/mscae/Cache_Redis_Product.svg;" vertex="1" parent="1">
          <mxGeometry x="-98.66999999999999" y="611" width="66.67" height="56" as="geometry" />
        </mxCell>
        <mxCell id="tJPOTWM7rPbdsHeLChuB-62" value="&lt;font style=&quot;font-size: 14px;&quot; color=&quot;#344756&quot;&gt;&lt;b&gt;PostgreSQL&lt;/b&gt;&lt;/font&gt;" style="shape=datastore;html=1;labelPosition=center;verticalLabelPosition=bottom;align=center;verticalAlign=top;fillColor=#344756;shadow=1;" vertex="1" parent="1">
          <mxGeometry x="-198.67" y="610" width="70" height="75" as="geometry" />
        </mxCell>
        <mxCell id="tJPOTWM7rPbdsHeLChuB-64" value="&lt;span style=&quot;font-size: 14px;&quot;&gt;&lt;b&gt;Копия приложения&lt;/b&gt;&lt;/span&gt;" style="shape=module;align=left;spacingLeft=20;align=center;verticalAlign=top;whiteSpace=wrap;html=1;fillColor=#D2D2D2;strokeColor=#0A1F32;strokeWidth=2;fontColor=#0A1F32;" vertex="1" parent="1">
          <mxGeometry x="30" y="510" width="210" height="194" as="geometry" />
        </mxCell>
        <mxCell id="tJPOTWM7rPbdsHeLChuB-65" value="&lt;font color=&quot;#344756&quot; style=&quot;font-size: 14px;&quot;&gt;&lt;b&gt;Сервисы&lt;/b&gt;&lt;/font&gt;" style="shape=module;align=left;spacingLeft=20;align=center;verticalAlign=top;whiteSpace=wrap;html=1;fillColor=#D2D2D2;strokeColor=#0A1F32;strokeWidth=2;fontColor=#0A1F32;" vertex="1" parent="1">
          <mxGeometry x="61.33000000000001" y="550" width="110" height="41" as="geometry" />
        </mxCell>
        <mxCell id="tJPOTWM7rPbdsHeLChuB-66" value="&lt;font style=&quot;font-size: 14px;&quot; color=&quot;#344756&quot;&gt;&lt;b&gt;PostgreSQL&lt;/b&gt;&lt;/font&gt;" style="shape=datastore;html=1;labelPosition=center;verticalLabelPosition=bottom;align=center;verticalAlign=top;fillColor=#344756;shadow=1;" vertex="1" parent="1">
          <mxGeometry x="61.33000000000001" y="601" width="70" height="75" as="geometry" />
        </mxCell>
        <mxCell id="tJPOTWM7rPbdsHeLChuB-67" value="" style="image;sketch=0;aspect=fixed;html=1;points=[];align=center;fontSize=12;image=img/lib/mscae/Cache_Redis_Product.svg;" vertex="1" parent="1">
          <mxGeometry x="161.33" y="601" width="66.67" height="56" as="geometry" />
        </mxCell>
        <mxCell id="tJPOTWM7rPbdsHeLChuB-68" value="&lt;span style=&quot;font-size: 14px;&quot;&gt;&lt;b&gt;Копия приложения&lt;/b&gt;&lt;/span&gt;" style="shape=module;align=left;spacingLeft=20;align=center;verticalAlign=top;whiteSpace=wrap;html=1;fillColor=#D2D2D2;strokeColor=#0A1F32;strokeWidth=2;fontColor=#0A1F32;" vertex="1" parent="1">
          <mxGeometry x="40" y="270" width="210" height="194" as="geometry" />
        </mxCell>
        <mxCell id="tJPOTWM7rPbdsHeLChuB-69" value="&lt;font color=&quot;#344756&quot; style=&quot;font-size: 14px;&quot;&gt;&lt;b&gt;Сервисы&lt;/b&gt;&lt;/font&gt;" style="shape=module;align=left;spacingLeft=20;align=center;verticalAlign=top;whiteSpace=wrap;html=1;fillColor=#D2D2D2;strokeColor=#0A1F32;strokeWidth=2;fontColor=#0A1F32;" vertex="1" parent="1">
          <mxGeometry x="71.33000000000001" y="310" width="110" height="41" as="geometry" />
        </mxCell>
        <mxCell id="tJPOTWM7rPbdsHeLChuB-70" value="&lt;font style=&quot;font-size: 14px;&quot; color=&quot;#344756&quot;&gt;&lt;b&gt;PostgreSQL&lt;/b&gt;&lt;/font&gt;" style="shape=datastore;html=1;labelPosition=center;verticalLabelPosition=bottom;align=center;verticalAlign=top;fillColor=#344756;shadow=1;" vertex="1" parent="1">
          <mxGeometry x="71.33000000000001" y="358" width="70" height="75" as="geometry" />
        </mxCell>
        <mxCell id="tJPOTWM7rPbdsHeLChuB-71" value="" style="image;sketch=0;aspect=fixed;html=1;points=[];align=center;fontSize=12;image=img/lib/mscae/Cache_Redis_Product.svg;" vertex="1" parent="1">
          <mxGeometry x="171.33" y="361" width="66.67" height="56" as="geometry" />
        </mxCell>
        <mxCell id="tJPOTWM7rPbdsHeLChuB-72" style="edgeStyle=orthogonalEdgeStyle;rounded=0;orthogonalLoop=1;jettySize=auto;html=1;exitX=1;exitY=0.7;exitDx=0;exitDy=0;entryX=1;entryY=0.3;entryDx=0;entryDy=0;" edge="1" parent="1" source="tJPOTWM7rPbdsHeLChuB-66" target="tJPOTWM7rPbdsHeLChuB-66">
          <mxGeometry relative="1" as="geometry" />
        </mxCell>
        <mxCell id="tJPOTWM7rPbdsHeLChuB-73" style="edgeStyle=orthogonalEdgeStyle;rounded=0;orthogonalLoop=1;jettySize=auto;html=1;entryX=0;entryY=0.5;entryDx=10;entryDy=0;entryPerimeter=0;strokeWidth=2;strokeColor=#0A1F32;" edge="1" parent="1" source="tJPOTWM7rPbdsHeLChuB-4" target="tJPOTWM7rPbdsHeLChuB-14">
          <mxGeometry relative="1" as="geometry" />
        </mxCell>
        <mxCell id="tJPOTWM7rPbdsHeLChuB-74" style="edgeStyle=orthogonalEdgeStyle;rounded=0;orthogonalLoop=1;jettySize=auto;html=1;entryX=0;entryY=0.5;entryDx=10;entryDy=0;entryPerimeter=0;strokeWidth=2;strokeColor=#0A1F32;" edge="1" parent="1" source="tJPOTWM7rPbdsHeLChuB-4" target="tJPOTWM7rPbdsHeLChuB-63">
          <mxGeometry relative="1" as="geometry" />
        </mxCell>
        <mxCell id="tJPOTWM7rPbdsHeLChuB-80" value="" style="rounded=0;whiteSpace=wrap;html=1;strokeWidth=2;dashed=1;strokeColor=#0A1F32;fillColor=none;" vertex="1" parent="1">
          <mxGeometry x="-470" y="231" width="760" height="517" as="geometry" />
        </mxCell>
        <mxCell id="tJPOTWM7rPbdsHeLChuB-81" value="" style="image;sketch=0;aspect=fixed;html=1;points=[];align=center;fontSize=12;image=img/lib/mscae/Kubernetes.svg;" vertex="1" parent="1">
          <mxGeometry x="-463.46" y="240" width="52.09" height="50" as="geometry" />
        </mxCell>
        <mxCell id="tJPOTWM7rPbdsHeLChuB-82" value="" style="whiteSpace=wrap;html=1;aspect=fixed;dashed=1;strokeWidth=2;strokeColor=#FF4C2B;fillColor=none;" vertex="1" parent="1">
          <mxGeometry x="26" y="253.5" width="237" height="237" as="geometry" />
        </mxCell>
        <mxCell id="tJPOTWM7rPbdsHeLChuB-83" value="" style="whiteSpace=wrap;html=1;aspect=fixed;dashed=1;strokeWidth=2;strokeColor=#FF4C2B;fillColor=none;" vertex="1" parent="1">
          <mxGeometry x="-237" y="255" width="237" height="237" as="geometry" />
        </mxCell>
        <mxCell id="tJPOTWM7rPbdsHeLChuB-84" value="" style="whiteSpace=wrap;html=1;aspect=fixed;dashed=1;strokeWidth=2;strokeColor=#FF4C2B;fillColor=none;" vertex="1" parent="1">
          <mxGeometry x="-237" y="501.5" width="237" height="237" as="geometry" />
        </mxCell>
        <mxCell id="tJPOTWM7rPbdsHeLChuB-85" value="" style="whiteSpace=wrap;html=1;aspect=fixed;dashed=1;strokeWidth=2;strokeColor=#FF4C2B;fillColor=none;" vertex="1" parent="1">
          <mxGeometry x="26.5" y="501.5" width="237" height="237" as="geometry" />
        </mxCell>
        <mxCell id="tJPOTWM7rPbdsHeLChuB-86" value="" style="image;sketch=0;aspect=fixed;html=1;points=[];align=center;fontSize=12;image=img/lib/mscae/Docker.svg;" vertex="1" parent="1">
          <mxGeometry x="181.33" y="668.5" width="85.37" height="70" as="geometry" />
        </mxCell>
        <mxCell id="tJPOTWM7rPbdsHeLChuB-87" value="" style="image;sketch=0;aspect=fixed;html=1;points=[];align=center;fontSize=12;image=img/lib/mscae/Docker.svg;" vertex="1" parent="1">
          <mxGeometry x="-84.99999999999997" y="667" width="85.37" height="70" as="geometry" />
        </mxCell>
        <mxCell id="tJPOTWM7rPbdsHeLChuB-88" value="" style="image;sketch=0;aspect=fixed;html=1;points=[];align=center;fontSize=12;image=img/lib/mscae/Docker.svg;" vertex="1" parent="1">
          <mxGeometry x="-80" y="423.11" width="76.7" height="62.89" as="geometry" />
        </mxCell>
        <mxCell id="tJPOTWM7rPbdsHeLChuB-89" value="" style="image;sketch=0;aspect=fixed;html=1;points=[];align=center;fontSize=12;image=img/lib/mscae/Docker.svg;" vertex="1" parent="1">
          <mxGeometry x="180" y="417.94" width="83" height="68.06" as="geometry" />
        </mxCell>
      </root>
    </mxGraphModel>
  </diagram>
</mxfile>
